<?xml version="1.0" encoding="utf-8"?>
<!-- Generator: Adobe Illustrator 15.0.0, SVG Export Plug-In . SVG Version: 6.00 Build 0)  -->
<!DOCTYPE svg PUBLIC "-//W3C//DTD SVG 1.1//EN" "http://www.w3.org/Graphics/SVG/1.1/DTD/svg11.dtd">
<svg version="1.1" id="Layer_1" xmlns="http://www.w3.org/2000/svg" xmlns:xlink="http://www.w3.org/1999/xlink" x="0px" y="0px"
	 width="1728px" height="1296px" viewBox="0 0 1728 1296" enable-background="new 0 0 1728 1296" xml:space="preserve">
<g>
	<polygon fill-rule="evenodd" clip-rule="evenodd" fill="#FFFFFF" points="1728,0 0,0 0,1296 1728,1296 1728,0 	"/>
	<polygon fill-rule="evenodd" clip-rule="evenodd" fill="#FDB515" points="43.2,1005.109 1684.8,1005.109 1684.8,43.2 
		43.2,1005.109 43.2,1005.109 	"/>
	<path fill-rule="evenodd" clip-rule="evenodd" d="M102.625,334.238v310.324H222.78c31.809,0.377,56.697-6.507,74.666-20.652
		c17.969-14.145,27.501-37.813,28.598-71.005c0.323-16.785-2.938-31.893-9.786-45.324c-6.847-13.431-17.194-22.717-31.04-27.859
		c9.734-7.643,17.423-17.311,23.067-29.002c5.644-11.691,8.525-24.706,8.645-39.043c-0.147-26.378-8.456-45.9-24.926-58.563
		c-16.471-12.664-40.221-18.956-71.25-18.875H102.625L102.625,334.238z M182.583,406.505h30.739
		c11.999,0.027,19.923,2.128,23.772,6.302c3.85,4.175,5.609,10.261,5.278,18.261c0.316,7.748-1.753,14.229-6.208,19.446
		c-4.455,5.216-11.168,7.927-20.141,8.134h-33.441V406.505L182.583,406.505z M182.583,514.987h24.997
		c16.728-0.296,28.281,1.589,34.661,5.655c6.379,4.066,9.572,12.092,9.579,24.076c0.253,7.747-1.94,14.229-6.583,19.444
		c-4.642,5.216-13.253,7.927-25.834,8.133h-36.819V514.987L182.583,514.987z"/>
	<polygon fill-rule="evenodd" clip-rule="evenodd" points="366.566,334.238 366.566,644.562 569.732,644.562 569.732,572.295 
		446.524,572.295 446.524,523.596 546.44,523.596 546.44,451.329 446.524,451.329 446.524,406.505 565.006,406.505 565.006,334.238 
		366.566,334.238 	"/>
	<path fill-rule="evenodd" clip-rule="evenodd" d="M685.619,406.505h38.167c8.536-0.009,15.783,2.594,21.744,7.81
		c5.96,5.215,9.07,13.096,9.331,23.644c0.746,7.854-1.253,14.766-5.996,20.735s-14.678,9.111-29.807,9.425h-33.438V406.505
		L685.619,406.505z M605.999,334.238v310.324h79.621V536.081c2.013,0,3.983,0,5.911,0c1.928,0,3.898,0,5.911,0
		c7.67-0.054,14.96,0.269,21.87,0.969c6.91,0.7,13.018,2.1,18.323,4.2c7.503,3.933,11.968,11.525,13.395,22.778
		c1.426,11.253,2.064,24.105,1.915,38.558c-0.149,14.453,1.164,28.445,3.94,41.977h80.297v-8.986
		c-3.158,0.099-5.366-2.252-6.625-7.053s-1.864-12.643-1.814-23.528v-24.12c-0.054-21.256-1.783-37.106-5.186-47.549
		c-3.402-10.443-8.155-17.968-14.256-22.574s-13.228-8.781-21.379-12.524c11.442-3.61,21.029-11.661,28.76-24.152
		s11.751-29.701,12.061-51.628c0.404-15.587-1.866-30.033-6.811-43.337s-14.99-24.05-30.135-32.237
		c-15.145-8.187-37.815-12.399-68.011-12.635H605.999L605.999,334.238z"/>
	<path fill-rule="evenodd" clip-rule="evenodd" d="M997.493,541.246h35.105c-2.355,10.751-7.433,19.428-15.231,26.029
		s-16.337,9.997-25.612,10.185c-13.062-0.229-23.318-4.272-30.768-12.129c-7.449-7.856-12.704-18.151-15.765-30.882
		c-3.062-12.731-4.541-26.524-4.438-41.378c0.154-30.171,4.317-52.917,12.489-68.238c8.172-15.322,19.424-23.001,33.756-23.037
		c11.765,0.341,20.978,4.289,27.637,11.843c6.66,7.554,11.062,16.67,13.207,27.346h75.95c-5.105-36.872-17.849-65.285-38.229-85.24
		c-20.38-19.955-46.118-29.851-77.216-29.687c-28.98,0.939-52.874,9.046-71.679,24.319s-32.772,35.498-41.903,60.674
		c-9.131,25.177-13.675,53.09-13.634,83.74c0.035,29.726,4.575,56.425,13.621,80.098c9.045,23.673,22.384,42.49,40.016,56.452
		c17.632,13.961,39.346,21.238,65.141,21.83c20.858-0.69,36.948-5.225,48.271-13.604c11.322-8.379,19.311-16.463,23.967-24.251
		l3.375,30.112h51.646V474.145H997.493V541.246L997.493,541.246z"/>
	<polygon fill-rule="evenodd" clip-rule="evenodd" points="1154.76,334.238 1154.76,644.562 1357.926,644.562 1357.926,572.295 
		1234.718,572.295 1234.718,523.596 1334.635,523.596 1334.635,451.329 1234.718,451.329 1234.718,406.505 1353.2,406.505 
		1353.2,334.238 1154.76,334.238 	"/>
	<path fill-rule="evenodd" clip-rule="evenodd" d="M1473.813,406.505h38.167c8.535-0.009,15.783,2.594,21.743,7.81
		s9.07,13.096,9.33,23.644c0.746,7.854-1.252,14.766-5.995,20.735c-4.742,5.969-14.678,9.111-29.807,9.425h-33.438V406.505
		L1473.813,406.505z M1394.192,334.238v310.324h79.621V536.081c2.012,0,3.982,0,5.91,0c1.929,0,3.898,0,5.911,0
		c7.67-0.054,14.96,0.269,21.87,0.969s13.018,2.1,18.323,4.2c7.504,3.933,11.969,11.525,13.395,22.778
		c1.427,11.253,2.064,24.105,1.915,38.558c-0.149,14.453,1.164,28.445,3.94,41.977h80.297v-8.986
		c-3.157,0.099-5.365-2.252-6.624-7.053s-1.863-12.643-1.814-23.528v-24.12c-0.054-21.256-1.782-37.106-5.186-47.549
		c-3.402-10.443-8.154-17.968-14.257-22.574c-6.102-4.606-13.228-8.781-21.378-12.524c11.442-3.61,21.028-11.661,28.76-24.152
		s11.751-29.701,12.061-51.628c0.404-15.587-1.866-30.033-6.812-43.337c-4.944-13.304-14.989-24.05-30.134-32.237
		c-15.146-8.187-37.815-12.399-68.011-12.635H1394.192L1394.192,334.238z"/>
	<path fill-rule="evenodd" clip-rule="evenodd" d="M90.662,1103.372h17.437l3.027,8.811h10.725l-16.646-42.737H93.82l-16.844,42.737
		h10.396L90.662,1103.372L90.662,1103.372z M99.347,1079.09h0.132l5.856,16.907H93.293L99.347,1079.09L99.347,1079.09z"/>
	<path fill-rule="evenodd" clip-rule="evenodd" d="M156.223,1090.168c-0.295-2.942-1.253-5.173-2.876-6.689
		c-1.623-1.518-3.585-2.538-5.889-3.062c-2.303-0.524-4.624-0.769-6.96-0.732c-3.613,0.045-6.454,0.616-8.522,1.714
		c-2.068,1.099-3.529,2.455-4.383,4.07c-0.854,1.616-1.267,3.222-1.24,4.818c0.058,2.334,0.811,4.135,2.259,5.403
		s3.243,2.205,5.386,2.811c2.143,0.605,4.286,1.08,6.429,1.424c2.143,0.344,3.938,0.759,5.386,1.242
		c1.448,0.484,2.201,1.24,2.259,2.267c0.052,0.658-0.332,1.354-1.153,2.087c-0.82,0.733-2.39,1.131-4.708,1.192
		c-2.853-0.025-4.851-0.466-5.992-1.319c-1.141-0.854-1.69-1.964-1.646-3.332h-9.469c0.144,2.798,1.048,4.998,2.713,6.6
		c1.666,1.601,3.76,2.732,6.281,3.395s5.138,0.982,7.849,0.961c1.91,0.036,4.044-0.222,6.404-0.773
		c2.359-0.553,4.415-1.617,6.166-3.194c1.752-1.578,2.672-3.887,2.76-6.928c-0.059-2.299-0.818-4.082-2.279-5.35
		c-1.461-1.268-3.272-2.211-5.435-2.829c-2.163-0.619-4.325-1.104-6.487-1.458c-2.163-0.353-3.974-0.764-5.435-1.233
		c-1.461-0.469-2.221-1.188-2.279-2.158c-0.077-0.729,0.242-1.419,0.955-2.067s2.283-0.994,4.708-1.037
		c2.423,0.047,4.031,0.49,4.824,1.328c0.793,0.839,1.249,1.789,1.366,2.852H156.223L156.223,1090.168z"/>
	<polygon fill-rule="evenodd" clip-rule="evenodd" points="173.456,1102.184 177.273,1098.612 185.631,1112.183 196.687,1112.183 
		183.985,1092.779 196.358,1080.519 185.039,1080.519 173.456,1092.541 173.456,1069.445 164.25,1069.445 164.25,1112.183 
		173.456,1112.183 173.456,1102.184 	"/>
	<polygon fill-rule="evenodd" clip-rule="evenodd" points="90.524,1153.728 111.32,1153.728 111.32,1146.174 90.524,1146.174 
		90.524,1136.522 114.282,1136.522 114.282,1128.969 80.661,1128.969 80.661,1171.707 90.524,1171.707 90.524,1153.728 	"/>
	<path fill-rule="evenodd" clip-rule="evenodd" d="M153.874,1155.874c-0.047-3.805-0.896-6.938-2.548-9.401
		s-3.827-4.291-6.525-5.483c-2.698-1.193-5.639-1.786-8.824-1.78c-3.185-0.006-6.126,0.587-8.824,1.78
		c-2.698,1.192-4.873,3.021-6.525,5.483s-2.501,5.597-2.548,9.401c0.047,3.806,0.896,6.939,2.548,9.402s3.827,4.291,6.525,5.483
		c2.698,1.193,5.639,1.786,8.824,1.78c3.185,0.006,6.126-0.587,8.824-1.78c2.698-1.192,4.873-3.021,6.525-5.483
		S153.827,1159.68,153.874,1155.874L153.874,1155.874z M144.405,1155.874c0.028,1.395-0.174,2.828-0.604,4.302
		c-0.431,1.474-1.257,2.722-2.478,3.745c-1.221,1.024-3.002,1.558-5.345,1.602c-2.343-0.044-4.125-0.577-5.346-1.602
		c-1.221-1.023-2.047-2.271-2.478-3.745s-0.632-2.907-0.604-4.302c-0.028-1.394,0.174-2.827,0.604-4.301s1.257-2.722,2.478-3.745
		c1.221-1.024,3.003-1.558,5.346-1.602c2.343,0.044,4.125,0.577,5.345,1.602c1.221,1.023,2.047,2.271,2.478,3.745
		C144.231,1153.047,144.433,1154.48,144.405,1155.874L144.405,1155.874z"/>
	<path fill-rule="evenodd" clip-rule="evenodd" d="M158.924,1171.707h9.205v-16.491c-0.094-1.852,0.424-3.551,1.555-5.098
		c1.131-1.547,3.442-2.367,6.935-2.463c0.435-0.003,0.881,0.002,1.341,0.015s0.89,0.047,1.292,0.104v-8.447
		c-0.296-0.03-0.592-0.058-0.888-0.081c-0.296-0.023-0.592-0.036-0.889-0.037c-2.729,0.062-4.791,0.711-6.186,1.947
		c-1.396,1.237-2.537,2.689-3.422,4.357h-0.132v-5.472h-8.811V1171.707L158.924,1171.707z"/>
	<polygon fill-rule="evenodd" clip-rule="evenodd" points="191.178,1163.022 181.314,1163.022 181.314,1171.707 191.178,1171.707 
		191.178,1163.022 	"/>
	<polygon fill-rule="evenodd" clip-rule="evenodd" points="209.507,1163.022 199.644,1163.022 199.644,1171.707 209.507,1171.707 
		209.507,1163.022 	"/>
	<polygon fill-rule="evenodd" clip-rule="evenodd" points="227.837,1163.022 217.974,1163.022 217.974,1171.707 227.837,1171.707 
		227.837,1163.022 	"/>
	<path fill-rule="evenodd" clip-rule="evenodd" d="M703.91,725.679h9.666v-16.729h10.206c2.396-0.008,4.144,0.26,5.245,0.804
		c1.101,0.543,1.796,1.411,2.085,2.603c0.289,1.192,0.414,2.757,0.373,4.694c0.003,2.162,0.096,3.899,0.28,5.211
		c0.184,1.312,0.441,2.451,0.772,3.418h10.917v-1.124c-1.009-0.276-1.624-1.004-1.843-2.182c-0.22-1.177-0.307-3.289-0.264-6.336
		c-0.002-2.617-0.231-4.621-0.689-6.012s-1.13-2.424-2.019-3.1s-1.98-1.25-3.275-1.723c2.347-0.755,4.147-2.042,5.401-3.861
		c1.254-1.819,1.887-3.926,1.899-6.32c0.049-1.312-0.305-2.903-1.062-4.773c-0.757-1.871-2.212-3.536-4.366-4.996
		s-5.3-2.23-9.439-2.312H703.91V725.679L703.91,725.679z M713.576,701.753v-11.438h12.312c2.823,0.092,4.699,0.742,5.629,1.951
		c0.93,1.209,1.358,2.425,1.284,3.648c0.003,2.094-0.628,3.596-1.893,4.505c-1.265,0.91-3.179,1.354-5.744,1.333H713.576
		L713.576,701.753z"/>
	<polygon fill-rule="evenodd" clip-rule="evenodd" points="786.119,682.94 751.379,682.94 751.379,725.679 787.238,725.679 
		787.238,718.125 761.045,718.125 761.045,707.045 784.079,707.045 784.079,699.491 761.045,699.491 761.045,690.494 
		786.119,690.494 786.119,682.94 	"/>
	<path fill-rule="evenodd" clip-rule="evenodd" d="M805.246,716.867h17.437l3.027,8.812h10.725l-16.647-42.738h-11.383
		l-16.844,42.738h10.396L805.246,716.867L805.246,716.867z M813.932,692.585h0.131l5.856,16.908h-12.041L813.932,692.585
		L813.932,692.585z"/>
	<polygon fill-rule="evenodd" clip-rule="evenodd" points="852.578,682.94 842.715,682.94 842.715,725.679 876.072,725.679 
		876.072,717.946 852.578,717.946 852.578,682.94 	"/>
	<polygon fill-rule="evenodd" clip-rule="evenodd" points="897.961,690.494 912.242,690.494 912.242,682.94 873.817,682.94 
		873.817,690.494 888.098,690.494 888.098,725.679 897.961,725.679 897.961,690.494 	"/>
	<path fill-rule="evenodd" clip-rule="evenodd" d="M913.722,704.31c0.069,4.976,0.958,8.969,2.667,11.979
		c1.709,3.01,3.821,5.274,6.338,6.794c2.516,1.519,5.02,2.53,7.51,3.032c2.49,0.503,4.553,0.734,6.186,0.694
		c1.633,0.04,3.694-0.191,6.186-0.694c2.49-0.502,4.994-1.514,7.51-3.032c2.516-1.52,4.629-3.784,6.338-6.794
		c1.709-3.011,2.598-7.004,2.667-11.979c-0.069-4.976-0.958-8.969-2.667-11.979c-1.709-3.01-3.822-5.274-6.338-6.794
		c-2.516-1.519-5.02-2.529-7.51-3.032c-2.491-0.503-4.553-0.734-6.186-0.694c-1.633-0.04-3.695,0.191-6.186,0.694
		s-4.994,1.514-7.51,3.032c-2.517,1.52-4.629,3.784-6.338,6.794C914.68,695.341,913.791,699.334,913.722,704.31L913.722,704.31z
		 M923.585,704.31c0.06-3.952,0.773-7.018,2.143-9.194c1.369-2.178,3.034-3.689,4.996-4.537s3.86-1.252,5.698-1.215
		c1.837-0.037,3.736,0.367,5.698,1.215c1.961,0.848,3.626,2.359,4.995,4.537c1.369,2.177,2.084,5.242,2.144,9.194
		c-0.06,3.953-0.774,7.018-2.144,9.195c-1.369,2.177-3.034,3.688-4.995,4.536c-1.962,0.848-3.861,1.253-5.698,1.215
		c-1.838,0.038-3.736-0.367-5.698-1.215s-3.627-2.359-4.996-4.536C924.358,711.327,923.645,708.263,923.585,704.31L923.585,704.31z"
		/>
	<path fill-rule="evenodd" clip-rule="evenodd" d="M967.065,725.679h9.666v-16.729h10.205c2.396-0.008,4.145,0.26,5.245,0.804
		c1.102,0.543,1.796,1.411,2.085,2.603c0.289,1.192,0.413,2.757,0.373,4.694c0.003,2.162,0.096,3.899,0.279,5.211
		c0.184,1.312,0.441,2.451,0.773,3.418h10.917v-1.124c-1.01-0.276-1.624-1.004-1.843-2.182c-0.22-1.177-0.308-3.289-0.264-6.336
		c-0.002-2.617-0.231-4.621-0.689-6.012c-0.457-1.391-1.13-2.424-2.019-3.1s-1.98-1.25-3.275-1.723
		c2.347-0.755,4.147-2.042,5.401-3.861c1.253-1.819,1.887-3.926,1.898-6.32c0.049-1.312-0.305-2.903-1.062-4.773
		c-0.757-1.871-2.212-3.536-4.365-4.996s-5.3-2.23-9.439-2.312h-23.887V725.679L967.065,725.679z M976.731,701.753v-11.438h12.312
		c2.823,0.092,4.699,0.742,5.629,1.951c0.931,1.209,1.358,2.425,1.284,3.648c0.003,2.094-0.628,3.596-1.893,4.505
		c-1.265,0.91-3.18,1.354-5.745,1.333H976.731L976.731,701.753z"/>
	<path fill-rule="evenodd" clip-rule="evenodd" d="M1015.49,683.318h0.798l1.831,3.329h2.002l-2.021-3.465
		c0.538-0.028,0.987-0.199,1.346-0.513c0.358-0.312,0.545-0.829,0.559-1.549c-0.008-0.892-0.294-1.516-0.857-1.875
		c-0.564-0.358-1.361-0.53-2.391-0.517h-2.956v7.918h1.69V683.318L1015.49,683.318z M1015.49,681.979v-1.909h1.188
		c0.345-0.015,0.678,0.029,1.001,0.132c0.322,0.102,0.495,0.351,0.519,0.745c-0.003,0.426-0.109,0.708-0.319,0.845
		s-0.506,0.199-0.889,0.188H1015.49L1015.49,681.979z M1024.09,682.697c-0.019-1.555-0.368-2.879-1.047-3.974
		c-0.679-1.094-1.574-1.93-2.686-2.507c-1.111-0.578-2.324-0.869-3.641-0.873c-1.322,0.004-2.541,0.295-3.654,0.873
		c-1.114,0.577-2.011,1.413-2.69,2.507c-0.68,1.095-1.029,2.419-1.048,3.974c0.019,1.555,0.368,2.879,1.048,3.974
		c0.68,1.094,1.576,1.93,2.69,2.507c1.113,0.577,2.332,0.868,3.654,0.873c1.316-0.005,2.529-0.296,3.641-0.873
		s2.007-1.413,2.686-2.507C1023.722,685.576,1024.071,684.252,1024.09,682.697L1024.09,682.697z M1021.972,682.697
		c-0.013,1.136-0.256,2.127-0.731,2.973c-0.475,0.847-1.108,1.505-1.898,1.975c-0.791,0.47-1.666,0.709-2.625,0.716v-0.02
		c-0.983-0.001-1.871-0.234-2.664-0.702c-0.792-0.467-1.423-1.124-1.891-1.969c-0.469-0.846-0.708-1.837-0.72-2.973
		c0.012-1.136,0.251-2.125,0.72-2.968c0.468-0.844,1.099-1.498,1.891-1.966c0.793-0.467,1.681-0.703,2.664-0.71
		c0.959,0.007,1.834,0.243,2.625,0.71c0.79,0.468,1.424,1.122,1.898,1.966C1021.716,680.572,1021.959,681.562,1021.972,682.697
		L1021.972,682.697z"/>
	<path fill-rule="evenodd" clip-rule="evenodd" d="M523.323,214.916c-0.281,8.855,1.6,18.548,5.64,29.08
		c4.041,10.532,11.925,19.65,23.652,27.355s28.981,11.745,51.761,12.121c4.42,0.132,10.652-0.472,18.695-1.812
		c8.043-1.34,16.345-4.211,24.902-8.613c8.558-4.402,15.819-11.13,21.782-20.183c5.963-9.053,9.074-21.226,9.333-36.52
		c-0.133-12.162-2.505-21.884-7.114-29.166c-4.61-7.282-10.657-12.896-18.141-16.843c-7.484-3.947-15.604-7-24.362-9.158
		l-46.23-12.291c-4.304-0.768-8.641-2.59-13.011-5.466c-4.37-2.876-6.726-8.2-7.067-15.971c0.435-9.153,4.056-15.572,10.865-19.258
		c6.808-3.686,14.194-5.461,22.159-5.324c11.355,0.211,19.76,2.202,25.215,5.971c5.455,3.769,9.046,8.046,10.773,12.831
		s2.676,8.808,2.847,12.068h37.993c0.08-8.736-2.044-18.19-6.373-28.36c-4.329-10.17-11.87-18.943-22.624-26.318
		c-10.754-7.375-25.729-11.239-44.925-11.591c-20.267,0.356-35.679,4.117-46.234,11.284s-17.692,15.604-21.412,25.312
		c-3.72,9.708-5.459,18.551-5.22,26.529c0.176,14.819,3.107,26.15,8.795,33.993s13.078,13.605,22.17,17.288s18.832,6.692,29.22,9.03
		l20.342,5.145c10.214,2.311,18.447,5.192,24.699,8.646c6.252,3.454,9.466,9.051,9.643,16.792
		c-0.142,7.167-2.177,12.683-6.105,16.547c-3.929,3.864-8.899,6.521-14.911,7.972c-6.013,1.45-12.216,2.138-18.61,2.064
		c-11.386-0.198-19.963-2.216-25.733-6.056s-9.631-8.314-11.584-13.424c-1.954-5.109-2.899-9.669-2.837-13.678H523.323
		L523.323,214.916z"/>
	<path fill-rule="evenodd" clip-rule="evenodd" d="M749.235,235.75H819.2l12.145,42.293h43.035L807.583,72.899h-45.675
		l-67.589,205.143h41.715L749.235,235.75L749.235,235.75z M784.086,119.193h0.528l23.498,81.157h-48.316L784.086,119.193
		L784.086,119.193z"/>
	<polygon fill-rule="evenodd" clip-rule="evenodd" points="939.156,72.899 899.58,72.899 899.58,278.042 1033.429,278.042 
		1033.429,240.929 939.156,240.929 939.156,72.899 	"/>
	<polygon fill-rule="evenodd" clip-rule="evenodd" points="1200.216,72.899 1060.821,72.899 1060.821,278.042 1204.705,278.042 
		1204.705,241.786 1099.605,241.786 1099.605,188.598 1192.029,188.598 1192.029,152.342 1099.605,152.342 1099.605,109.156 
		1200.216,109.156 1200.216,72.899 	"/>
</g>
</svg>
