<?xml version="1.0" encoding="utf-8"?>
<!-- Generator: Adobe Illustrator 15.0.0, SVG Export Plug-In . SVG Version: 6.00 Build 0)  -->
<!DOCTYPE svg PUBLIC "-//W3C//DTD SVG 1.1//EN" "http://www.w3.org/Graphics/SVG/1.1/DTD/svg11.dtd">
<svg version="1.1" id="Layer_1" xmlns="http://www.w3.org/2000/svg" xmlns:xlink="http://www.w3.org/1999/xlink" x="0px" y="0px"
	 width="854.5px" height="854.5px" viewBox="2 0 854.5 854.5" enable-background="new 2 0 854.5 854.5" xml:space="preserve">
<g>
	<polygon fill="#FFFFFF" points="856.5,0 2,0 2,854.5 856.5,854.5 	"/>
	<polygon points="838.698,17.802 19.802,17.802 19.802,836.698 838.698,836.698 	"/>
	<polygon fill="#FFFFFF" points="159.155,404.316 159.155,381.416 137.977,381.416 137.977,404.316 130.105,404.316 130.105,350.91 
		137.977,350.91 137.977,372.271 159.155,372.271 159.155,350.91 167.027,350.91 167.027,404.316 	"/>
	<path fill="#FFFFFF" d="M205.545,388.698c0,3.561-0.344,6.366-1.031,8.416c-0.688,2.05-1.843,3.749-3.468,5.098
		c-1.082,0.971-2.301,1.699-3.655,2.186c-1.354,0.484-3.176,0.729-5.466,0.729c-2.333,0-4.207-0.243-5.623-0.729
		c-1.417-0.485-2.687-1.214-3.812-2.186c-0.792-0.646-1.458-1.36-1.999-2.145c-0.542-0.782-0.989-1.687-1.343-2.712
		c-0.354-1.024-0.604-2.237-0.75-3.642c-0.146-1.401-0.219-3.074-0.219-5.017v-24.114h7.435v24.519c0,2.481,0.583,4.479,1.749,5.988
		s2.77,2.267,4.811,2.267c1.042,0,1.947-0.243,2.718-0.729s1.405-1.104,1.905-1.861c0.5-0.756,0.875-1.632,1.125-2.63
		s0.375-2.009,0.375-3.034v-24.519h7.247L205.545,388.698L205.545,388.698z"/>
	<path fill="#FFFFFF" d="M242.405,374.942c-1.125-0.863-2.426-1.632-3.905-2.307s-3.009-1.012-4.592-1.012
		c-1.541,0-2.978,0.257-4.311,0.771c-1.333,0.512-2.499,1.293-3.499,2.346s-1.792,2.348-2.374,3.885
		c-0.583,1.537-0.875,3.331-0.875,5.381s0.312,3.897,0.937,5.543s1.468,3.048,2.531,4.207c1.061,1.16,2.28,2.063,3.654,2.711
		c1.375,0.647,2.812,0.971,4.311,0.971c0.625,0,1.187-0.065,1.687-0.201c0.5-0.135,1.062-0.311,1.687-0.525v-10.924h7.435v16.992
		c-2.041,0.594-3.967,1.133-5.779,1.619c-1.812,0.484-3.822,0.728-6.029,0.728c-2.499,0-4.853-0.432-7.06-1.294
		c-2.208-0.864-4.133-2.158-5.779-3.884c-1.645-1.728-2.937-3.884-3.874-6.475c-0.937-2.59-1.405-5.61-1.405-9.062
		c0-3.236,0.447-6.136,1.343-8.698c0.895-2.562,2.145-4.707,3.749-6.434s3.509-3.048,5.716-3.965
		c2.208-0.917,4.603-1.376,7.185-1.376c1.166,0,2.259,0.054,3.279,0.161c1.021,0.107,2.01,0.311,2.968,0.606
		s1.926,0.675,2.905,1.133c0.979,0.459,2.031,1.039,3.155,1.74L242.405,374.942L242.405,374.942z"/>
	<polygon fill="#FFFFFF" points="278.725,404.316 278.725,387.729 264.293,387.729 264.293,404.316 256.858,404.316 
		256.858,364.585 264.293,364.585 264.293,380.04 278.725,380.04 278.725,364.585 286.159,364.585 286.159,404.316 	"/>
	<polygon fill="#FFFFFF" points="298.629,404.316 298.629,364.585 319.058,364.585 319.058,371.948 306.063,371.948 
		306.063,380.364 316.747,380.364 316.747,387.729 306.063,387.729 306.063,396.952 319.745,396.952 319.745,404.316 	"/>
	<path fill="#FFFFFF" d="M346.13,374.861c-1.583-1.078-2.937-1.808-4.061-2.186c-1.125-0.377-2.416-0.566-3.874-0.566
		c-0.958,0-1.833,0.217-2.624,0.647c-0.791,0.431-1.187,1.133-1.187,2.104c0,0.647,0.167,1.24,0.5,1.78
		c0.333,0.539,0.781,1.052,1.343,1.537s1.198,0.971,1.906,1.456c0.708,0.486,1.458,0.998,2.249,1.538
		c1.125,0.754,2.197,1.47,3.217,2.144c1.02,0.676,1.906,1.457,2.655,2.348c0.75,0.891,1.354,1.941,1.812,3.156
		c0.458,1.214,0.688,2.765,0.688,4.652c0,3.829-1.031,6.729-3.093,8.698s-4.904,2.953-8.528,2.953c-2.582,0-4.779-0.392-6.591-1.173
		c-1.812-0.782-3.613-1.794-5.403-3.035l3.248-7.606c1.499,1.079,2.957,1.942,4.374,2.591c1.417,0.647,2.895,0.971,4.436,0.971
		c0.958,0,1.833-0.216,2.624-0.647s1.187-1.214,1.187-2.347c0-0.809-0.312-1.577-0.937-2.307s-1.364-1.416-2.218-2.062
		s-1.697-1.215-2.53-1.699c-0.833-0.485-1.437-0.863-1.812-1.134c-1.374-0.971-2.52-1.874-3.436-2.711
		c-0.917-0.836-1.656-1.672-2.218-2.509c-0.562-0.836-0.968-1.739-1.218-2.71c-0.25-0.972-0.375-2.077-0.375-3.317
		c0-2.05,0.312-3.804,0.937-5.26s1.479-2.645,2.561-3.562c1.083-0.917,2.364-1.591,3.843-2.021c1.479-0.433,3.072-0.647,4.779-0.647
		c1.124,0,2.145,0.067,3.061,0.202c0.917,0.135,1.802,0.337,2.656,0.607c0.854,0.27,1.697,0.605,2.53,1.012
		c0.833,0.403,1.729,0.876,2.687,1.415L346.13,374.861L346.13,374.861z"/>
	<path fill="#FFFFFF" d="M393.268,366.688c0-2.589-0.552-4.424-1.656-5.502c-1.104-1.078-2.946-1.617-5.528-1.617h-5.123v14.727
		h5.123c2.499,0,4.321-0.593,5.466-1.78C392.695,371.328,393.268,369.387,393.268,366.688L393.268,366.688z M394.33,404.316
		l-9.434-21.363h-3.936v21.363h-7.871V350.91h13.744c1.5,0,2.812,0.066,3.937,0.202c1.125,0.134,2.123,0.351,2.998,0.646
		c0.875,0.298,1.646,0.701,2.312,1.215c0.667,0.513,1.312,1.146,1.937,1.9c2.249,2.698,3.374,6.555,3.374,11.572
		c0,4.1-0.75,7.443-2.249,10.033c-0.375,0.646-0.76,1.215-1.156,1.699c-0.396,0.485-0.844,0.917-1.344,1.294
		c-0.498,0.379-1.061,0.715-1.686,1.013c-0.625,0.297-1.375,0.605-2.25,0.931l10.247,22.899h-8.622V404.316z"/>
	<polygon fill="#FFFFFF" points="409.893,404.316 409.893,364.585 417.39,364.585 417.39,404.316 	"/>
	<path fill="#FFFFFF" d="M454.715,374.942c-1.124-0.863-2.426-1.632-3.905-2.307c-1.478-0.675-3.009-1.012-4.591-1.012
		c-1.541,0-2.979,0.257-4.312,0.771c-1.332,0.512-2.499,1.293-3.499,2.346c-0.999,1.053-1.791,2.348-2.374,3.885
		s-0.875,3.331-0.875,5.381s0.312,3.897,0.938,5.543c0.625,1.646,1.47,3.048,2.53,4.207c1.062,1.16,2.281,2.063,3.655,2.711
		c1.375,0.647,2.812,0.971,4.311,0.971c0.625,0,1.188-0.065,1.688-0.201c0.5-0.135,1.062-0.311,1.687-0.525v-10.924h7.436v16.992
		c-2.041,0.594-3.968,1.133-5.779,1.619c-1.812,0.484-3.822,0.728-6.029,0.728c-2.499,0-4.852-0.432-7.059-1.294
		c-2.208-0.864-4.134-2.158-5.78-3.884c-1.645-1.728-2.936-3.884-3.874-6.475c-0.937-2.589-1.406-5.61-1.406-9.062
		c0-3.236,0.447-6.136,1.344-8.698c0.895-2.562,2.145-4.707,3.749-6.434c1.604-1.727,3.509-3.048,5.716-3.965
		c2.208-0.917,4.603-1.376,7.185-1.376c1.166,0,2.259,0.054,3.279,0.161s2.01,0.311,2.968,0.606
		c0.958,0.297,1.927,0.675,2.905,1.133c0.979,0.459,2.031,1.039,3.155,1.74L454.715,374.942L454.715,374.942z"/>
	<path fill="#FFFFFF" d="M493.721,374.942c-1.125-0.863-2.426-1.632-3.903-2.307c-1.479-0.675-3.011-1.012-4.593-1.012
		c-1.541,0-2.978,0.257-4.311,0.771c-1.333,0.512-2.499,1.293-3.498,2.346c-1,1.053-1.791,2.348-2.375,3.885
		c-0.583,1.537-0.875,3.331-0.875,5.381s0.312,3.897,0.938,5.543s1.47,3.048,2.53,4.207c1.062,1.16,2.28,2.063,3.655,2.711
		s2.812,0.971,4.311,0.971c0.625,0,1.188-0.065,1.688-0.201c0.5-0.135,1.061-0.311,1.687-0.525v-10.924h7.435v16.992
		c-2.041,0.594-3.967,1.133-5.779,1.619c-1.811,0.484-3.821,0.728-6.028,0.728c-2.499,0-4.852-0.432-7.06-1.294
		c-2.207-0.863-4.133-2.158-5.779-3.884c-1.645-1.728-2.936-3.884-3.874-6.475c-0.937-2.589-1.405-5.61-1.405-9.062
		c0-3.236,0.447-6.136,1.343-8.698s2.145-4.707,3.749-6.434c1.604-1.727,3.509-3.048,5.717-3.965s4.602-1.376,7.184-1.376
		c1.166,0,2.26,0.054,3.28,0.161c1.021,0.107,2.01,0.311,2.967,0.606c0.959,0.297,1.928,0.675,2.905,1.133
		c0.979,0.459,2.031,1.039,3.155,1.74L493.721,374.942L493.721,374.942z"/>
	<path fill="#FFFFFF" d="M524.606,374.861c-1.583-1.078-2.937-1.808-4.062-2.186c-1.125-0.377-2.416-0.566-3.873-0.566
		c-0.959,0-1.833,0.217-2.625,0.647s-1.187,1.133-1.187,2.104c0,0.647,0.167,1.24,0.5,1.78c0.333,0.539,0.78,1.052,1.343,1.537
		s1.197,0.971,1.906,1.456c0.708,0.486,1.458,0.998,2.249,1.538c1.125,0.754,2.196,1.47,3.217,2.144
		c1.021,0.676,1.906,1.457,2.656,2.348s1.354,1.941,1.812,3.156c0.458,1.214,0.688,2.765,0.688,4.652
		c0,3.829-1.03,6.729-3.093,8.698c-2.062,1.969-4.903,2.953-8.526,2.953c-2.583,0-4.779-0.392-6.591-1.173
		c-1.812-0.782-3.613-1.794-5.404-3.035l3.249-7.606c1.499,1.079,2.957,1.942,4.373,2.591c1.416,0.646,2.895,0.971,4.436,0.971
		c0.958,0,1.833-0.216,2.625-0.647c0.791-0.432,1.188-1.214,1.188-2.347c0-0.809-0.312-1.577-0.938-2.307s-1.364-1.416-2.218-2.062
		c-0.853-0.646-1.697-1.215-2.53-1.699c-0.833-0.485-1.437-0.863-1.812-1.134c-1.374-0.971-2.521-1.874-3.437-2.711
		c-0.917-0.836-1.655-1.672-2.218-2.509c-0.562-0.836-0.968-1.739-1.218-2.71c-0.25-0.972-0.375-2.077-0.375-3.317
		c0-2.05,0.312-3.804,0.938-5.26s1.479-2.645,2.562-3.562c1.082-0.917,2.363-1.591,3.842-2.021c1.479-0.433,3.072-0.647,4.779-0.647
		c1.125,0,2.145,0.067,3.062,0.202s1.802,0.337,2.655,0.607c0.854,0.27,1.697,0.605,2.53,1.012c0.833,0.403,1.729,0.876,2.687,1.415
		L524.606,374.861L524.606,374.861z"/>
	<path fill="#FFFFFF" d="M571.777,366.688c0-2.589-0.553-4.424-1.656-5.502c-1.104-1.078-2.947-1.617-5.529-1.617h-5.123v14.727
		h5.123c2.499,0,4.321-0.593,5.467-1.78C571.205,371.328,571.777,369.387,571.777,366.688L571.777,366.688z M572.839,404.316
		l-9.434-21.363h-3.937v21.363h-7.872V350.91h13.745c1.499,0,2.812,0.066,3.937,0.202c1.124,0.134,2.124,0.351,2.999,0.646
		c0.875,0.298,1.645,0.701,2.312,1.215c0.667,0.513,1.312,1.146,1.938,1.9c2.249,2.698,3.374,6.555,3.374,11.572
		c0,4.1-0.75,7.443-2.25,10.033c-0.375,0.646-0.761,1.215-1.156,1.699c-0.396,0.485-0.843,0.917-1.343,1.294
		c-0.5,0.379-1.062,0.715-1.688,1.013c-0.625,0.297-1.374,0.605-2.249,0.931l10.246,22.899h-8.622V404.316z"/>
	<polygon fill="#FFFFFF" points="588.089,404.316 588.089,364.585 608.519,364.585 608.519,371.948 595.524,371.948 
		595.524,380.364 606.207,380.364 606.207,387.729 595.524,387.729 595.524,396.952 609.206,396.952 609.206,404.316 	"/>
	<path fill="#FFFFFF" d="M628.531,375.428l-3.124,12.704h5.873L628.531,375.428L628.531,375.428z M635.465,404.316l-2.312-8.739
		h-9.246l-2.438,8.739h-7.997l11.684-39.731h6.623l11.683,39.731H635.465L635.465,404.316z"/>
	<polygon fill="#FFFFFF" points="650.101,404.316 650.101,364.585 657.535,364.585 657.535,396.871 670.156,396.871 
		670.156,404.316 	"/>
	<polygon fill="#FFFFFF" points="689.572,371.948 689.572,404.316 682.075,404.316 682.075,371.948 672.766,371.948 
		672.766,364.585 698.88,364.585 698.88,371.948 	"/>
	<polygon fill="#FFFFFF" points="718.087,387.729 718.087,404.316 710.653,404.316 710.653,387.729 701.157,364.585 
		709.216,364.585 714.901,378.584 720.898,364.585 728.396,364.585 	"/>
	<polygon fill="#FFFFFF" points="53.05,599.423 46.505,599.423 46.505,608.324 53.261,608.324 53.261,606.751 48.327,606.751 
		48.327,604.443 52.666,604.443 52.666,602.871 48.327,602.871 48.327,600.996 53.05,600.996 	"/>
	<path fill="#FFFFFF" d="M59.953,603.464c-0.015-0.534-0.174-0.938-0.474-1.216c-0.301-0.276-0.654-0.463-1.058-0.558
		c-0.405-0.097-0.77-0.142-1.095-0.135c-0.458-0.01-0.899,0.04-1.322,0.147c-0.422,0.107-0.781,0.329-1.076,0.661
		c-0.295,0.333-0.479,0.832-0.553,1.496h1.672c0.012-0.207,0.087-0.408,0.227-0.604s0.419-0.301,0.841-0.314
		c0.243-0.014,0.489,0.022,0.738,0.11c0.25,0.087,0.384,0.307,0.403,0.658c-0.009,0.183-0.076,0.312-0.202,0.386
		c-0.126,0.075-0.261,0.12-0.406,0.135l-1.563,0.235c-0.563,0.078-1.021,0.289-1.374,0.632c-0.353,0.344-0.535,0.835-0.546,1.478
		c0.006,0.453,0.106,0.821,0.3,1.104c0.193,0.284,0.442,0.491,0.746,0.623c0.304,0.131,0.624,0.196,0.961,0.195
		c0.58-0.015,1.033-0.123,1.36-0.324c0.327-0.2,0.585-0.411,0.773-0.63c0.017,0.176,0.036,0.314,0.057,0.414
		c0.021,0.101,0.056,0.223,0.104,0.366h1.871v-0.26c-0.108-0.025-0.199-0.108-0.271-0.25c-0.072-0.14-0.11-0.398-0.113-0.778
		V603.464L59.953,603.464z M58.256,605.957c-0.017,0.407-0.179,0.725-0.487,0.954c-0.308,0.229-0.663,0.345-1.064,0.349
		c-0.18,0.006-0.356-0.052-0.528-0.169c-0.173-0.118-0.265-0.326-0.278-0.625c0.009-0.349,0.125-0.591,0.348-0.725
		s0.5-0.224,0.831-0.269c0.353-0.056,0.618-0.111,0.793-0.171c0.176-0.058,0.305-0.12,0.385-0.188V605.957L58.256,605.957z"/>
	<path fill="#FFFFFF" d="M65.395,605.92c0.001,0.112-0.035,0.258-0.11,0.438c-0.075,0.18-0.199,0.342-0.372,0.485
		c-0.173,0.146-0.405,0.223-0.697,0.23c-0.431-0.013-0.741-0.146-0.932-0.396c-0.191-0.251-0.309-0.542-0.353-0.873
		s-0.063-0.623-0.055-0.876c-0.003-0.281,0.035-0.566,0.114-0.858c0.08-0.292,0.22-0.537,0.42-0.737
		c0.2-0.2,0.482-0.305,0.842-0.313c0.396-0.005,0.68,0.113,0.852,0.353c0.171,0.239,0.272,0.478,0.303,0.715h1.759
		c-0.067-0.679-0.266-1.202-0.595-1.57c-0.33-0.366-0.708-0.621-1.135-0.76c-0.428-0.139-0.822-0.205-1.183-0.197
		c-1.108,0.019-1.914,0.361-2.417,1.027c-0.503,0.667-0.752,1.543-0.744,2.629c-0.009,0.479,0.071,0.967,0.24,1.469
		c0.168,0.502,0.474,0.927,0.917,1.273c0.444,0.347,1.075,0.527,1.893,0.543c0.797-0.021,1.412-0.192,1.842-0.518
		c0.43-0.324,0.73-0.688,0.899-1.09c0.168-0.4,0.259-0.726,0.271-0.973H65.395L65.395,605.92z"/>
	<path fill="#FFFFFF" d="M74.21,603.762c-0.015-0.727-0.236-1.274-0.663-1.646c-0.427-0.372-0.97-0.559-1.63-0.56
		c-0.478,0.009-0.886,0.111-1.225,0.311c-0.339,0.196-0.567,0.437-0.686,0.718h-0.024v-3.161h-1.734v8.901h1.734v-3.781
		c0.009-0.504,0.14-0.883,0.394-1.14c0.253-0.257,0.578-0.385,0.97-0.387c0.362,0.008,0.623,0.084,0.784,0.23
		c0.161,0.146,0.26,0.319,0.298,0.52c0.039,0.199,0.054,0.385,0.048,0.553v4.005h1.734V603.762L74.21,603.762z"/>
	<path fill="#FFFFFF" d="M78.968,603.874c0.013,1.036,0.181,1.867,0.502,2.495c0.322,0.627,0.72,1.099,1.194,1.415
		c0.474,0.315,0.946,0.526,1.415,0.632c0.469,0.104,0.858,0.152,1.166,0.145c0.308,0.009,0.696-0.041,1.165-0.145
		c0.469-0.105,0.941-0.316,1.415-0.632c0.474-0.316,0.872-0.788,1.194-1.415c0.322-0.628,0.489-1.459,0.502-2.495
		c-0.013-1.036-0.18-1.868-0.502-2.495c-0.322-0.627-0.72-1.099-1.194-1.414c-0.474-0.316-0.946-0.526-1.415-0.632
		c-0.469-0.104-0.857-0.153-1.165-0.145c-0.308-0.01-0.696,0.04-1.166,0.145c-0.47,0.105-0.94,0.315-1.415,0.632
		c-0.474,0.316-0.872,0.788-1.194,1.414C79.149,602.006,78.981,602.838,78.968,603.874L78.968,603.874z M80.827,603.874
		c0.011-0.823,0.146-1.462,0.404-1.915s0.571-0.77,0.941-0.944c0.369-0.177,0.728-0.261,1.073-0.254
		c0.346-0.008,0.704,0.077,1.074,0.254c0.37,0.177,0.684,0.491,0.941,0.944c0.258,0.453,0.393,1.092,0.404,1.915
		c-0.011,0.823-0.146,1.462-0.404,1.915c-0.257,0.453-0.572,0.77-0.941,0.945c-0.37,0.176-0.728,0.261-1.074,0.253
		c-0.346,0.008-0.704-0.076-1.073-0.253c-0.37-0.178-0.684-0.492-0.941-0.945S80.838,604.697,80.827,603.874L80.827,603.874z"/>
	<path fill="#FFFFFF" d="M90.829,602.968h1.129v-1.237h-1.129v-0.261c-0.012-0.271,0.015-0.461,0.081-0.571
		c0.066-0.111,0.241-0.166,0.527-0.161h0.484v-1.399c-0.071-0.007-0.175-0.013-0.312-0.018c-0.137-0.006-0.331-0.008-0.581-0.009
		c-0.601-0.007-1.072,0.138-1.412,0.432c-0.341,0.294-0.515,0.776-0.521,1.453v0.534H88.14v1.237h0.955v5.356h1.734V602.968
		L90.829,602.968z"/>
	<path fill="#FFFFFF" d="M94.947,602.968h1.128v-1.237h-1.128v-0.261c-0.012-0.271,0.015-0.461,0.081-0.571
		c0.065-0.111,0.241-0.166,0.527-0.161h0.484v-1.399c-0.071-0.007-0.175-0.013-0.312-0.018c-0.137-0.006-0.331-0.008-0.581-0.009
		c-0.601-0.007-1.072,0.138-1.413,0.432c-0.34,0.294-0.514,0.776-0.52,1.453v0.534h-0.955v1.237h0.955v5.356h1.734V602.968
		L94.947,602.968z"/>
	<path fill="#FFFFFF" d="M97.107,601.729v6.596h1.734v-6.596H97.107L97.107,601.729z M98.842,599.337h-1.734v1.61h1.734V599.337
		L98.842,599.337z"/>
	<path fill="#FFFFFF" d="M104.418,605.92c0.002,0.112-0.035,0.258-0.11,0.438c-0.075,0.18-0.199,0.342-0.372,0.485
		c-0.172,0.146-0.405,0.223-0.697,0.23c-0.431-0.013-0.741-0.146-0.932-0.396c-0.191-0.251-0.308-0.542-0.353-0.873
		c-0.044-0.331-0.062-0.623-0.055-0.876c-0.003-0.281,0.035-0.566,0.114-0.858c0.08-0.292,0.219-0.537,0.421-0.737
		c0.201-0.2,0.481-0.305,0.842-0.313c0.396-0.005,0.68,0.113,0.852,0.353s0.272,0.478,0.303,0.715h1.759
		c-0.067-0.679-0.265-1.202-0.595-1.57c-0.329-0.366-0.708-0.621-1.135-0.76c-0.427-0.139-0.822-0.205-1.183-0.197
		c-1.108,0.019-1.914,0.361-2.417,1.027c-0.504,0.667-0.751,1.543-0.744,2.629c-0.008,0.479,0.072,0.967,0.24,1.469
		c0.167,0.502,0.474,0.927,0.917,1.273s1.074,0.527,1.893,0.543c0.797-0.021,1.411-0.192,1.841-0.518
		c0.431-0.324,0.73-0.688,0.899-1.09c0.168-0.4,0.259-0.726,0.271-0.973H104.418L104.418,605.92z"/>
	<path fill="#FFFFFF" d="M111.247,606.392c-0.076,0.236-0.219,0.415-0.428,0.536c-0.209,0.122-0.439,0.184-0.688,0.184
		c-0.46-0.011-0.798-0.112-1.014-0.309c-0.217-0.193-0.358-0.416-0.424-0.667c-0.066-0.249-0.104-0.462-0.113-0.639h4.526v-0.311
		c-0.014-0.991-0.186-1.753-0.514-2.279c-0.329-0.526-0.729-0.888-1.203-1.079c-0.473-0.192-0.934-0.283-1.382-0.271
		c-0.716,0.01-1.287,0.146-1.712,0.409c-0.426,0.261-0.743,0.582-0.952,0.96c-0.208,0.379-0.345,0.748-0.409,1.108
		c-0.065,0.36-0.094,0.646-0.088,0.855c0.021,1.338,0.336,2.278,0.945,2.822c0.609,0.542,1.39,0.804,2.34,0.785
		c0.383,0.003,0.767-0.062,1.152-0.194c0.385-0.133,0.733-0.354,1.044-0.662c0.31-0.309,0.546-0.726,0.704-1.251L111.247,606.392
		L111.247,606.392z M108.628,604.371c0.049-0.438,0.185-0.778,0.407-1.021c0.222-0.242,0.538-0.365,0.946-0.369
		c0.294-0.009,0.575,0.09,0.842,0.296c0.268,0.204,0.433,0.569,0.497,1.096L108.628,604.371L108.628,604.371z"/>
	<polygon fill="#FFFFFF" points="119.517,599.423 117.658,599.423 117.658,608.324 119.517,608.324 	"/>
	<path fill="#FFFFFF" d="M126.554,603.739c-0.055-0.612-0.236-1.077-0.542-1.394c-0.306-0.315-0.675-0.528-1.109-0.639
		c-0.434-0.108-0.872-0.159-1.312-0.151c-0.681,0.01-1.216,0.128-1.605,0.356c-0.39,0.229-0.665,0.512-0.826,0.848
		c-0.161,0.337-0.239,0.671-0.233,1.003c0.011,0.486,0.153,0.861,0.425,1.126s0.611,0.459,1.015,0.585
		c0.404,0.127,0.808,0.226,1.211,0.298c0.404,0.071,0.742,0.157,1.015,0.259c0.273,0.101,0.414,0.258,0.425,0.472
		c0.01,0.137-0.062,0.282-0.217,0.436c-0.154,0.152-0.45,0.235-0.887,0.249c-0.538-0.007-0.914-0.099-1.129-0.275
		c-0.215-0.177-0.318-0.409-0.31-0.693h-1.784c0.027,0.582,0.197,1.04,0.511,1.374s0.708,0.568,1.184,0.707
		c0.475,0.139,0.968,0.205,1.479,0.2c0.36,0.008,0.762-0.047,1.207-0.161c0.444-0.115,0.832-0.337,1.162-0.665
		c0.33-0.329,0.503-0.811,0.52-1.442c-0.011-0.479-0.154-0.852-0.43-1.114c-0.276-0.263-0.617-0.461-1.024-0.589
		c-0.408-0.129-0.814-0.23-1.222-0.305c-0.407-0.071-0.749-0.158-1.024-0.257c-0.275-0.098-0.418-0.248-0.43-0.448
		c-0.015-0.152,0.045-0.297,0.18-0.432c0.135-0.135,0.431-0.207,0.887-0.217c0.457,0.011,0.76,0.104,0.909,0.277
		s0.235,0.373,0.257,0.594L126.554,603.739L126.554,603.739z"/>
	<polygon fill="#FFFFFF" points="133.318,599.423 131.459,599.423 131.459,608.324 133.318,608.324 	"/>
	<path fill="#FFFFFF" d="M140.873,603.762c-0.015-0.727-0.236-1.274-0.663-1.646c-0.427-0.372-0.97-0.559-1.63-0.56
		c-0.415,0.008-0.754,0.075-1.019,0.207c-0.265,0.131-0.473,0.285-0.625,0.461s-0.266,0.332-0.341,0.472h-0.025v-0.966h-1.66v6.595
		h1.734v-3.781c0.009-0.503,0.14-0.883,0.394-1.139c0.254-0.259,0.578-0.386,0.971-0.388c0.362,0.009,0.623,0.084,0.783,0.23
		c0.161,0.146,0.26,0.319,0.298,0.52c0.038,0.201,0.054,0.386,0.048,0.554v4.005h1.734L140.873,603.762L140.873,603.762z"/>
	<path fill="#FFFFFF" d="M148.477,599.423h-1.734v3.161h-0.025c-0.129-0.227-0.342-0.45-0.639-0.671
		c-0.296-0.221-0.72-0.341-1.271-0.356c-0.49,0-0.942,0.124-1.355,0.373c-0.412,0.25-0.745,0.626-0.996,1.129
		c-0.252,0.504-0.381,1.136-0.388,1.896c-0.002,0.613,0.093,1.188,0.284,1.724s0.492,0.972,0.901,1.306
		c0.41,0.335,0.939,0.507,1.591,0.518c0.368,0.004,0.723-0.069,1.067-0.224c0.343-0.153,0.625-0.413,0.844-0.78h0.024v0.83h1.697
		V599.423L148.477,599.423z M143.852,605.077c-0.008-0.541,0.1-1.008,0.324-1.402c0.224-0.394,0.608-0.602,1.152-0.62
		c0.393,0.008,0.698,0.112,0.915,0.315c0.217,0.204,0.368,0.467,0.453,0.787c0.084,0.321,0.125,0.661,0.121,1.019
		c0.005,0.508-0.113,0.947-0.355,1.316c-0.241,0.37-0.636,0.563-1.183,0.582c-0.369-0.011-0.658-0.125-0.866-0.344
		c-0.208-0.221-0.354-0.482-0.438-0.788C143.89,605.636,143.849,605.347,143.852,605.077L143.852,605.077z"/>
	<path fill="#FFFFFF" d="M153.875,606.392c-0.076,0.236-0.219,0.415-0.428,0.536c-0.209,0.122-0.439,0.184-0.689,0.184
		c-0.459-0.011-0.797-0.112-1.014-0.309c-0.217-0.193-0.358-0.416-0.424-0.667c-0.066-0.249-0.104-0.462-0.113-0.639h4.526v-0.311
		c-0.014-0.991-0.186-1.753-0.514-2.279c-0.329-0.526-0.729-0.888-1.203-1.079c-0.474-0.192-0.934-0.283-1.383-0.271
		c-0.716,0.01-1.287,0.146-1.712,0.409c-0.426,0.261-0.743,0.582-0.951,0.96c-0.208,0.379-0.345,0.748-0.41,1.108
		c-0.064,0.36-0.094,0.646-0.087,0.855c0.021,1.338,0.335,2.278,0.945,2.822c0.609,0.542,1.39,0.804,2.34,0.785
		c0.383,0.003,0.767-0.062,1.152-0.194c0.385-0.132,0.733-0.354,1.044-0.662s0.546-0.726,0.705-1.251L153.875,606.392
		L153.875,606.392z M151.257,604.371c0.048-0.438,0.184-0.778,0.406-1.021c0.222-0.242,0.538-0.365,0.946-0.369
		c0.294-0.009,0.575,0.09,0.842,0.296c0.268,0.204,0.433,0.569,0.498,1.096L151.257,604.371L151.257,604.371z"/>
	<path fill="#FFFFFF" d="M158.483,605.176c-0.004-0.356,0.036-0.697,0.118-1.019c0.083-0.32,0.231-0.583,0.446-0.787
		c0.215-0.203,0.519-0.31,0.912-0.315c0.544,0.02,0.929,0.227,1.152,0.619c0.223,0.396,0.331,0.862,0.324,1.403
		c0.003,0.27-0.038,0.559-0.122,0.864s-0.23,0.567-0.439,0.787c-0.208,0.22-0.498,0.334-0.866,0.345
		c-0.546-0.019-0.938-0.212-1.177-0.582C158.594,606.123,158.479,605.684,158.483,605.176L158.483,605.176z M158.483,601.729h-1.66
		v9.175h1.734v-3.421h0.024c0.094,0.198,0.278,0.412,0.554,0.643c0.274,0.229,0.711,0.354,1.307,0.374
		c0.651-0.011,1.181-0.183,1.59-0.519c0.41-0.334,0.71-0.77,0.902-1.305c0.191-0.536,0.286-1.109,0.284-1.724
		c-0.007-0.761-0.136-1.393-0.388-1.896c-0.252-0.504-0.583-0.879-0.997-1.129c-0.412-0.249-0.864-0.373-1.355-0.373
		c-0.572,0.014-1.006,0.137-1.302,0.368c-0.296,0.231-0.52,0.484-0.669,0.759h-0.025L158.483,601.729L158.483,601.729z"/>
	<path fill="#FFFFFF" d="M168.283,606.392c-0.076,0.236-0.218,0.415-0.428,0.536c-0.209,0.122-0.439,0.184-0.689,0.184
		c-0.459-0.011-0.797-0.112-1.014-0.309c-0.216-0.192-0.358-0.416-0.423-0.667c-0.066-0.249-0.104-0.462-0.113-0.639h4.525v-0.311
		c-0.014-0.991-0.186-1.753-0.514-2.279c-0.329-0.526-0.729-0.888-1.203-1.079c-0.474-0.192-0.934-0.283-1.382-0.271
		c-0.716,0.01-1.287,0.146-1.712,0.409c-0.426,0.261-0.743,0.582-0.951,0.96c-0.208,0.379-0.345,0.748-0.41,1.108
		c-0.064,0.36-0.094,0.646-0.087,0.855c0.021,1.338,0.335,2.278,0.945,2.822c0.609,0.542,1.39,0.804,2.34,0.785
		c0.383,0.003,0.767-0.062,1.152-0.194c0.385-0.133,0.733-0.354,1.044-0.662s0.546-0.726,0.705-1.251L168.283,606.392
		L168.283,606.392z M165.666,604.371c0.048-0.438,0.184-0.778,0.406-1.021c0.222-0.242,0.538-0.365,0.946-0.369
		c0.293-0.009,0.575,0.09,0.842,0.296c0.267,0.204,0.433,0.569,0.497,1.096L165.666,604.371L165.666,604.371z"/>
	<path fill="#FFFFFF" d="M177.231,603.762c-0.015-0.727-0.236-1.274-0.663-1.646c-0.427-0.372-0.97-0.559-1.629-0.56
		c-0.415,0.008-0.755,0.075-1.02,0.207c-0.265,0.131-0.474,0.285-0.625,0.461c-0.152,0.176-0.266,0.332-0.34,0.472h-0.025v-0.966
		h-1.66v6.595h1.734v-3.781c0.009-0.503,0.14-0.883,0.394-1.139c0.254-0.259,0.577-0.386,0.971-0.388
		c0.361,0.009,0.623,0.084,0.783,0.23c0.16,0.146,0.26,0.319,0.298,0.52c0.038,0.201,0.054,0.386,0.047,0.554v4.005h1.734
		L177.231,603.762L177.231,603.762z"/>
	<path fill="#FFFFFF" d="M184.835,599.423h-1.734v3.161h-0.024c-0.129-0.227-0.343-0.45-0.639-0.671
		c-0.297-0.221-0.72-0.341-1.271-0.356c-0.49,0-0.942,0.124-1.355,0.373c-0.412,0.25-0.745,0.626-0.996,1.129
		c-0.252,0.504-0.381,1.136-0.388,1.896c-0.001,0.613,0.093,1.188,0.285,1.724c0.191,0.535,0.492,0.972,0.901,1.306
		c0.41,0.335,0.94,0.507,1.59,0.518c0.368,0.004,0.724-0.069,1.066-0.224c0.344-0.153,0.625-0.413,0.844-0.78h0.025v0.83h1.697
		L184.835,599.423L184.835,599.423z M180.209,605.077c-0.007-0.541,0.101-1.008,0.325-1.402c0.224-0.394,0.608-0.602,1.152-0.62
		c0.393,0.008,0.698,0.112,0.915,0.315c0.217,0.204,0.367,0.467,0.452,0.787c0.084,0.321,0.125,0.661,0.122,1.019
		c0.005,0.508-0.113,0.947-0.355,1.316c-0.242,0.37-0.636,0.563-1.184,0.582c-0.369-0.011-0.658-0.125-0.866-0.344
		c-0.208-0.221-0.354-0.482-0.438-0.788C180.247,605.636,180.207,605.347,180.209,605.077L180.209,605.077z"/>
	<path fill="#FFFFFF" d="M190.233,606.392c-0.076,0.236-0.219,0.415-0.428,0.536c-0.21,0.122-0.439,0.184-0.689,0.184
		c-0.459-0.011-0.798-0.112-1.014-0.309c-0.217-0.192-0.358-0.416-0.424-0.667c-0.066-0.249-0.104-0.462-0.113-0.639h4.526v-0.311
		c-0.015-0.991-0.186-1.753-0.514-2.279c-0.329-0.526-0.729-0.888-1.203-1.079c-0.473-0.192-0.934-0.283-1.382-0.271
		c-0.716,0.01-1.287,0.146-1.712,0.409c-0.426,0.261-0.743,0.582-0.952,0.96c-0.208,0.379-0.345,0.748-0.41,1.108
		c-0.064,0.36-0.094,0.646-0.087,0.855c0.021,1.338,0.335,2.278,0.945,2.822c0.609,0.542,1.39,0.804,2.34,0.785
		c0.383,0.003,0.767-0.062,1.152-0.194c0.385-0.133,0.733-0.354,1.044-0.662s0.545-0.726,0.704-1.251L190.233,606.392
		L190.233,606.392z M187.615,604.371c0.049-0.438,0.184-0.778,0.407-1.021c0.222-0.242,0.538-0.365,0.946-0.369
		c0.294-0.009,0.575,0.09,0.842,0.296c0.268,0.204,0.433,0.569,0.497,1.096L187.615,604.371L187.615,604.371z"/>
	<path fill="#FFFFFF" d="M199.181,603.762c-0.015-0.727-0.236-1.274-0.663-1.646c-0.427-0.372-0.971-0.559-1.63-0.56
		c-0.415,0.008-0.754,0.075-1.02,0.207c-0.265,0.131-0.473,0.285-0.625,0.461c-0.152,0.176-0.266,0.332-0.341,0.472h-0.025v-0.966
		h-1.66v6.595h1.734v-3.781c0.009-0.503,0.14-0.883,0.394-1.139c0.253-0.259,0.578-0.386,0.971-0.388
		c0.361,0.009,0.622,0.084,0.783,0.23c0.161,0.146,0.26,0.319,0.298,0.52c0.038,0.201,0.054,0.386,0.047,0.554v4.005h1.734
		L199.181,603.762L199.181,603.762z"/>
	<path fill="#FFFFFF" d="M202.706,599.944h-1.734v1.784h-0.893v1.238h0.893v4.007c-0.02,0.435,0.088,0.777,0.323,1.033
		c0.236,0.255,0.718,0.386,1.448,0.392h0.223c0.273-0.002,0.546-0.011,0.818-0.023v-1.313c-0.062,0.007-0.124,0.014-0.185,0.019
		s-0.119,0.007-0.175,0.008c-0.34,0.002-0.548-0.039-0.625-0.123c-0.077-0.083-0.109-0.22-0.095-0.411v-3.584h1.079v-1.238h-1.079
		v-1.787H202.706z"/>
	<polygon fill="#FFFFFF" points="206.662,599.423 204.928,599.423 204.928,608.324 206.662,608.324 	"/>
	<path fill="#FFFFFF" d="M214.042,601.729h-1.834l-1.351,4.86h-0.025l-1.413-4.86h-1.934l2.43,6.869
		c-0.079,0.438-0.209,0.717-0.394,0.835c-0.184,0.12-0.433,0.173-0.747,0.157c-0.149-0.003-0.26-0.011-0.335-0.025v1.389
		c0.126,0.007,0.258,0.012,0.395,0.017s0.266,0.008,0.386,0.008c0.493,0.012,0.877-0.047,1.153-0.174s0.513-0.39,0.711-0.788
		c0.198-0.397,0.429-0.999,0.69-1.802L214.042,601.729L214.042,601.729z"/>
	<path fill="#FFFFFF" d="M218.21,603.874c0.013,1.036,0.181,1.867,0.503,2.495c0.322,0.627,0.72,1.099,1.194,1.415
		c0.474,0.315,0.946,0.526,1.415,0.632c0.469,0.104,0.857,0.152,1.165,0.145c0.308,0.009,0.696-0.041,1.166-0.145
		c0.469-0.105,0.94-0.316,1.415-0.632c0.474-0.316,0.872-0.788,1.194-1.415c0.322-0.628,0.49-1.459,0.502-2.495
		c-0.013-1.036-0.181-1.868-0.502-2.495c-0.321-0.627-0.72-1.099-1.194-1.414c-0.474-0.316-0.946-0.526-1.415-0.632
		c-0.469-0.104-0.858-0.153-1.166-0.145c-0.308-0.01-0.696,0.04-1.165,0.145c-0.469,0.104-0.941,0.315-1.415,0.632
		c-0.474,0.317-0.872,0.788-1.194,1.414C218.391,602.006,218.224,602.838,218.21,603.874L218.21,603.874z M220.069,603.874
		c0.011-0.823,0.146-1.462,0.404-1.915c0.258-0.453,0.572-0.77,0.941-0.944c0.37-0.177,0.728-0.261,1.074-0.254
		c0.346-0.008,0.704,0.077,1.073,0.254c0.37,0.177,0.684,0.491,0.942,0.944c0.257,0.453,0.392,1.092,0.403,1.915
		c-0.011,0.823-0.146,1.462-0.403,1.915c-0.258,0.453-0.572,0.77-0.942,0.945c-0.369,0.176-0.727,0.261-1.073,0.253
		c-0.346,0.008-0.704-0.076-1.074-0.253c-0.37-0.178-0.683-0.492-0.941-0.945C220.215,605.336,220.08,604.697,220.069,603.874
		L220.069,603.874z"/>
	<polygon fill="#FFFFFF" points="236.792,601.729 235.007,601.729 233.978,606.466 233.954,606.466 232.961,601.729 
		231.213,601.729 230.283,606.466 230.259,606.466 229.229,601.729 227.383,601.729 229.243,608.324 231.027,608.324 
		232.056,603.514 232.081,603.514 233.11,608.324 234.895,608.324 	"/>
	<path fill="#FFFFFF" d="M243.641,603.762c-0.015-0.727-0.236-1.274-0.663-1.646c-0.427-0.372-0.971-0.559-1.63-0.56
		c-0.414,0.008-0.754,0.075-1.019,0.207c-0.265,0.131-0.473,0.285-0.625,0.461s-0.266,0.332-0.341,0.472h-0.024v-0.966h-1.66v6.595
		h1.734v-3.781c0.009-0.503,0.14-0.883,0.394-1.139c0.254-0.259,0.577-0.386,0.971-0.388c0.361,0.009,0.623,0.084,0.783,0.23
		c0.161,0.146,0.26,0.319,0.298,0.52c0.038,0.201,0.054,0.386,0.048,0.554v4.005h1.734V603.762L243.641,603.762z"/>
	<path fill="#FFFFFF" d="M249.101,606.392c-0.076,0.236-0.219,0.415-0.428,0.536c-0.209,0.122-0.439,0.184-0.689,0.184
		c-0.459-0.011-0.798-0.112-1.015-0.309c-0.216-0.193-0.358-0.416-0.423-0.667c-0.066-0.249-0.104-0.462-0.113-0.639h4.525v-0.311
		c-0.014-0.991-0.185-1.753-0.514-2.279c-0.328-0.526-0.729-0.888-1.202-1.079c-0.474-0.192-0.935-0.283-1.383-0.271
		c-0.716,0.01-1.287,0.146-1.712,0.409c-0.425,0.261-0.743,0.582-0.951,0.96c-0.209,0.379-0.345,0.748-0.41,1.108
		c-0.064,0.36-0.093,0.646-0.087,0.855c0.021,1.338,0.335,2.278,0.945,2.822c0.61,0.542,1.39,0.804,2.34,0.785
		c0.382,0.003,0.767-0.062,1.152-0.194c0.385-0.133,0.733-0.354,1.044-0.662s0.546-0.726,0.705-1.251L249.101,606.392
		L249.101,606.392z M246.483,604.371c0.048-0.438,0.184-0.778,0.406-1.021c0.222-0.242,0.538-0.365,0.946-0.369
		c0.294-0.009,0.574,0.09,0.842,0.296c0.268,0.204,0.434,0.569,0.498,1.096L246.483,604.371L246.483,604.371z"/>
	<path fill="#FFFFFF" d="M258.111,599.423h-1.734v3.161h-0.024c-0.129-0.227-0.343-0.45-0.639-0.671
		c-0.297-0.221-0.72-0.341-1.271-0.356c-0.491,0-0.942,0.124-1.355,0.373c-0.413,0.25-0.745,0.626-0.996,1.129
		c-0.252,0.504-0.381,1.136-0.388,1.896c-0.002,0.613,0.092,1.188,0.285,1.724c0.192,0.535,0.492,0.972,0.902,1.306
		c0.409,0.335,0.939,0.507,1.59,0.518c0.368,0.004,0.724-0.069,1.067-0.224c0.343-0.153,0.625-0.413,0.843-0.78h0.025v0.83h1.697
		L258.111,599.423L258.111,599.423z M253.486,605.077c-0.008-0.541,0.101-1.008,0.324-1.402s0.608-0.602,1.152-0.62
		c0.393,0.008,0.698,0.112,0.916,0.315c0.217,0.204,0.367,0.467,0.452,0.787c0.084,0.321,0.125,0.661,0.121,1.019
		c0.005,0.508-0.113,0.947-0.354,1.316c-0.242,0.37-0.636,0.563-1.184,0.582c-0.369-0.011-0.658-0.125-0.866-0.344
		c-0.208-0.221-0.354-0.482-0.439-0.788C253.523,605.636,253.483,605.347,253.486,605.077L253.486,605.077z"/>
	<path fill="#FFFFFF" d="M265.061,606.489h3.286l0.57,1.835h2.021l-3.136-8.901h-2.145l-3.173,8.901h1.958L265.061,606.489
		L265.061,606.489z M266.697,601.433h0.025l1.103,3.521h-2.268L266.697,601.433L266.697,601.433z"/>
	<path fill="#FFFFFF" d="M277.948,603.762c-0.015-0.727-0.236-1.274-0.663-1.646c-0.427-0.372-0.97-0.559-1.63-0.56
		c-0.414,0.008-0.754,0.075-1.019,0.207c-0.265,0.131-0.473,0.285-0.625,0.461c-0.152,0.176-0.266,0.332-0.341,0.472h-0.024v-0.966
		h-1.66v6.595h1.734v-3.781c0.009-0.503,0.14-0.883,0.394-1.139c0.254-0.259,0.578-0.386,0.971-0.388
		c0.361,0.009,0.623,0.084,0.783,0.23c0.161,0.146,0.26,0.319,0.298,0.52s0.054,0.386,0.047,0.554v4.005h1.734L277.948,603.762
		L277.948,603.762z"/>
	<path fill="#FFFFFF" d="M285.552,599.423h-1.735v3.161h-0.025c-0.129-0.227-0.342-0.45-0.639-0.671
		c-0.296-0.221-0.72-0.341-1.271-0.356c-0.49,0-0.942,0.124-1.355,0.373c-0.412,0.25-0.745,0.626-0.996,1.129
		c-0.251,0.504-0.381,1.136-0.388,1.896c-0.002,0.613,0.093,1.188,0.285,1.724c0.192,0.535,0.492,0.972,0.901,1.306
		c0.409,0.335,0.939,0.507,1.591,0.518c0.367,0.004,0.723-0.069,1.066-0.224c0.343-0.154,0.625-0.413,0.844-0.78h0.024v0.83h1.698
		V599.423L285.552,599.423z M280.926,605.077c-0.007-0.541,0.101-1.008,0.324-1.402c0.223-0.394,0.608-0.602,1.152-0.62
		c0.393,0.008,0.698,0.112,0.915,0.315c0.217,0.204,0.367,0.467,0.452,0.787c0.084,0.321,0.125,0.661,0.122,1.019
		c0.005,0.508-0.113,0.947-0.355,1.316c-0.242,0.37-0.636,0.563-1.183,0.582c-0.37-0.011-0.658-0.125-0.866-0.344
		c-0.208-0.221-0.355-0.482-0.439-0.788C280.964,605.636,280.923,605.347,280.926,605.077L280.926,605.077z"/>
	<path fill="#FFFFFF" d="M290.247,603.874c0.013,1.036,0.18,1.867,0.502,2.495c0.322,0.627,0.72,1.099,1.194,1.415
		c0.474,0.315,0.946,0.526,1.415,0.632c0.469,0.104,0.857,0.152,1.165,0.145c0.308,0.009,0.696-0.041,1.165-0.145
		c0.469-0.105,0.941-0.316,1.416-0.632c0.473-0.316,0.872-0.788,1.194-1.415c0.322-0.628,0.489-1.459,0.502-2.495
		c-0.013-1.036-0.181-1.868-0.502-2.495c-0.321-0.627-0.72-1.099-1.194-1.414c-0.474-0.316-0.946-0.526-1.416-0.632
		c-0.47-0.104-0.857-0.153-1.165-0.145c-0.308-0.01-0.697,0.04-1.165,0.145c-0.469,0.104-0.941,0.315-1.415,0.632
		c-0.474,0.316-0.872,0.788-1.194,1.414C290.428,602.006,290.26,602.838,290.247,603.874L290.247,603.874z M292.105,603.874
		c0.011-0.823,0.146-1.462,0.403-1.915c0.259-0.453,0.572-0.77,0.942-0.944c0.37-0.177,0.727-0.261,1.074-0.254
		c0.346-0.008,0.704,0.077,1.073,0.254c0.37,0.177,0.684,0.491,0.941,0.944c0.258,0.453,0.393,1.092,0.404,1.915
		c-0.011,0.823-0.146,1.462-0.404,1.915c-0.257,0.453-0.572,0.77-0.941,0.945c-0.369,0.176-0.727,0.261-1.073,0.253
		c-0.347,0.008-0.704-0.076-1.074-0.253c-0.37-0.178-0.683-0.492-0.942-0.945C292.251,605.336,292.116,604.697,292.105,603.874
		L292.105,603.874z"/>
	<path fill="#FFFFFF" d="M301.724,605.176c-0.004-0.356,0.035-0.697,0.118-1.019c0.083-0.32,0.232-0.583,0.446-0.787
		c0.214-0.203,0.519-0.31,0.912-0.315c0.545,0.02,0.929,0.227,1.152,0.619c0.224,0.396,0.331,0.862,0.324,1.403
		c0.003,0.27-0.038,0.559-0.122,0.864c-0.084,0.305-0.23,0.567-0.439,0.787c-0.208,0.22-0.497,0.334-0.866,0.345
		c-0.547-0.019-0.939-0.212-1.177-0.582C301.834,606.123,301.719,605.684,301.724,605.176L301.724,605.176z M301.724,601.729h-1.661
		v9.175h1.734v-3.421h0.025c0.093,0.198,0.278,0.412,0.554,0.643c0.276,0.229,0.711,0.354,1.308,0.374
		c0.65-0.011,1.181-0.183,1.59-0.519c0.409-0.334,0.71-0.77,0.901-1.305c0.191-0.536,0.287-1.109,0.285-1.724
		c-0.007-0.761-0.136-1.393-0.388-1.896c-0.252-0.504-0.584-0.879-0.997-1.129c-0.412-0.249-0.864-0.373-1.354-0.373
		c-0.572,0.014-1.006,0.137-1.303,0.368c-0.296,0.231-0.519,0.484-0.669,0.759h-0.024L301.724,601.729L301.724,601.729z"/>
	<path fill="#FFFFFF" d="M311.523,606.392c-0.075,0.236-0.218,0.415-0.427,0.536c-0.209,0.122-0.439,0.184-0.689,0.184
		c-0.459-0.011-0.798-0.112-1.014-0.309c-0.217-0.193-0.358-0.416-0.424-0.667c-0.066-0.249-0.104-0.462-0.113-0.639h4.525v-0.311
		c-0.014-0.991-0.186-1.753-0.514-2.279c-0.329-0.526-0.729-0.888-1.203-1.079c-0.473-0.192-0.934-0.283-1.382-0.271
		c-0.716,0.01-1.287,0.146-1.712,0.409c-0.426,0.261-0.743,0.582-0.952,0.96c-0.208,0.379-0.345,0.748-0.409,1.108
		s-0.094,0.646-0.087,0.855c0.021,1.338,0.335,2.278,0.944,2.822c0.609,0.542,1.39,0.804,2.34,0.785
		c0.383,0.003,0.766-0.062,1.152-0.194c0.385-0.133,0.732-0.354,1.044-0.662c0.311-0.309,0.545-0.726,0.705-1.251L311.523,606.392
		L311.523,606.392z M308.906,604.371c0.049-0.438,0.184-0.778,0.407-1.021c0.222-0.242,0.538-0.365,0.946-0.369
		c0.294-0.009,0.575,0.09,0.842,0.296c0.268,0.204,0.433,0.569,0.498,1.096L308.906,604.371L308.906,604.371z"/>
	<path fill="#FFFFFF" d="M314.497,608.324h1.734v-3.435c-0.018-0.386,0.08-0.738,0.293-1.062c0.213-0.322,0.649-0.493,1.306-0.514
		c0.082,0,0.167,0,0.253,0.004c0.086,0.003,0.167,0.01,0.244,0.021v-1.76c-0.056-0.006-0.112-0.012-0.168-0.017
		c-0.055-0.006-0.111-0.009-0.167-0.009c-0.514,0.013-0.902,0.147-1.165,0.405c-0.263,0.258-0.478,0.561-0.646,0.907h-0.024v-1.141
		h-1.659L314.497,608.324L314.497,608.324z"/>
	<path fill="#FFFFFF" d="M324.66,603.464c-0.015-0.534-0.174-0.938-0.475-1.216c-0.301-0.277-0.654-0.463-1.059-0.558
		c-0.404-0.097-0.769-0.142-1.095-0.135c-0.458-0.01-0.898,0.04-1.322,0.147c-0.422,0.107-0.782,0.329-1.076,0.661
		c-0.294,0.333-0.479,0.832-0.553,1.496h1.672c0.012-0.207,0.088-0.408,0.227-0.604s0.42-0.301,0.841-0.314
		c0.243-0.014,0.489,0.022,0.738,0.11c0.25,0.087,0.383,0.307,0.403,0.658c-0.008,0.183-0.075,0.312-0.201,0.386
		c-0.126,0.075-0.262,0.12-0.407,0.135l-1.564,0.235c-0.562,0.078-1.02,0.289-1.374,0.632c-0.354,0.344-0.536,0.835-0.546,1.478
		c0.006,0.453,0.106,0.821,0.3,1.104c0.194,0.284,0.443,0.491,0.747,0.623c0.303,0.131,0.624,0.196,0.96,0.195
		c0.58-0.015,1.033-0.123,1.36-0.324c0.327-0.2,0.585-0.411,0.774-0.63c0.017,0.176,0.036,0.314,0.058,0.414
		c0.021,0.101,0.055,0.223,0.104,0.366h1.871v-0.26c-0.109-0.025-0.199-0.108-0.271-0.25c-0.072-0.14-0.11-0.398-0.113-0.778
		L324.66,603.464L324.66,603.464z M322.963,605.957c-0.017,0.407-0.179,0.725-0.487,0.954c-0.308,0.229-0.663,0.345-1.064,0.349
		c-0.18,0.006-0.356-0.052-0.529-0.169c-0.173-0.118-0.265-0.326-0.277-0.625c0.009-0.349,0.125-0.591,0.347-0.725
		c0.223-0.134,0.5-0.224,0.831-0.269c0.353-0.056,0.618-0.111,0.794-0.171c0.176-0.058,0.305-0.12,0.385-0.188V605.957
		L322.963,605.957z"/>
	<path fill="#FFFFFF" d="M328.129,599.944h-1.734v1.784h-0.893v1.238h0.893v4.007c-0.02,0.435,0.088,0.777,0.324,1.033
		c0.235,0.255,0.718,0.386,1.448,0.392h0.223c0.273-0.002,0.545-0.011,0.819-0.023v-1.313c-0.062,0.007-0.124,0.014-0.185,0.019
		s-0.119,0.007-0.175,0.008c-0.339,0.002-0.547-0.039-0.625-0.123c-0.077-0.083-0.108-0.22-0.095-0.411v-3.584h1.079v-1.238h-1.079
		V599.944L328.129,599.944z"/>
	<path fill="#FFFFFF" d="M334.183,606.392c-0.077,0.236-0.219,0.415-0.429,0.536c-0.209,0.122-0.438,0.184-0.688,0.184
		c-0.459-0.011-0.798-0.112-1.014-0.309c-0.217-0.193-0.358-0.416-0.424-0.667c-0.066-0.249-0.104-0.462-0.113-0.639h4.525v-0.311
		c-0.014-0.991-0.185-1.753-0.514-2.279s-0.729-0.888-1.203-1.079c-0.473-0.192-0.934-0.283-1.382-0.271
		c-0.716,0.01-1.288,0.146-1.712,0.409c-0.426,0.261-0.743,0.582-0.951,0.96c-0.209,0.379-0.345,0.748-0.41,1.108
		c-0.064,0.36-0.094,0.646-0.088,0.855c0.021,1.338,0.336,2.278,0.945,2.822c0.609,0.542,1.39,0.804,2.34,0.785
		c0.382,0.003,0.767-0.062,1.152-0.194c0.385-0.133,0.732-0.354,1.043-0.662c0.311-0.309,0.546-0.726,0.705-1.251L334.183,606.392
		L334.183,606.392z M331.565,604.371c0.049-0.438,0.184-0.778,0.407-1.021c0.223-0.242,0.538-0.365,0.946-0.369
		c0.294-0.009,0.575,0.09,0.842,0.296c0.268,0.204,0.433,0.569,0.498,1.096L331.565,604.371L331.565,604.371z"/>
	<path fill="#FFFFFF" d="M343.192,599.423h-1.734v3.161h-0.025c-0.129-0.227-0.342-0.45-0.639-0.671
		c-0.297-0.222-0.721-0.341-1.271-0.356c-0.491,0-0.942,0.124-1.354,0.373c-0.413,0.25-0.745,0.626-0.997,1.129
		c-0.251,0.504-0.38,1.136-0.388,1.896c-0.002,0.613,0.093,1.188,0.285,1.724c0.191,0.535,0.492,0.972,0.901,1.306
		c0.41,0.335,0.94,0.507,1.59,0.518c0.368,0.004,0.724-0.069,1.067-0.224c0.343-0.153,0.625-0.413,0.844-0.78h0.024v0.83h1.697
		V599.423L343.192,599.423z M338.568,605.077c-0.008-0.541,0.101-1.008,0.324-1.402s0.608-0.602,1.152-0.62
		c0.393,0.008,0.698,0.112,0.915,0.315c0.217,0.204,0.368,0.467,0.453,0.787c0.084,0.321,0.125,0.661,0.121,1.019
		c0.005,0.508-0.113,0.947-0.355,1.316c-0.242,0.37-0.636,0.563-1.184,0.582c-0.369-0.011-0.658-0.125-0.866-0.344
		c-0.208-0.221-0.354-0.482-0.438-0.788C338.605,605.636,338.565,605.347,338.568,605.077L338.568,605.077z"/>
	<path fill="#FFFFFF" d="M554.619,139.942l0.034,57.021l-21.481,34.929h23.719l74.738-113.167h-24.167l-32.071,49.881l-0.153-49.277
		H557.78v-0.038c-7.948,0.296-6.72-1.479-14.808,5.917l0.047-6.016l-18.844-0.039l0.023,86.299l19.875,0.17v-46.897
		C544.074,144.002,547.068,143.088,554.619,139.942L554.619,139.942L554.619,139.942z M445.012,119.069h-0.82h-7.391V93.435h-20.255
		v26.488h-11.221v18.836c-5.424-12.438-16.361-19.406-27.962-19.406c-8.139,0-14.373,1.371-21.032,9.114v-7.975h-20.254v12.188
		c-18.792-18.849-44.545-15.019-59.395-1.365c-17.94,16.493-16.68,38.756-9.022,53.645c-11.316,11.699-28.563,19.393-42.955,19.822
		c-28.026-0.448-54.728-22.856-54.728-57.365c0-29.354,25.377-56.021,54.728-56.021c14.785,0,29.35,6.05,42.59,20.615H301.5
		c-10.372-31.597-48.77-50.42-77.237-50.42c-56.051,0-84.959,52.884-84.077,83.137c1.765,55.125,37.515,86.721,80.988,89.856
		c17.653,0.896,47.168-6.094,66.856-28.887c12.383,5.907,27.741,5.522,40.931-1.755v-24.494c-1.313,2.616-3.388,3.284-5.474,5.395
		c-11.223,5.998-18.065,7.706-26.883,3.658l39.473-34.773v52.778h19.681v-49.194c0-10.78,8.287-17.766,17.018-17.766
		c8.287,0,16.426,6.528,16.426,22.775v44.186h19.682v-49.499c0-5.856-0.923-11.12-2.561-15.725h10.225l0.07,64.6l20.185,0.056
		v-65.225h7.391v30.463c0,26.363,16.527,36.756,31.595,36.756c10.678,0,19.747-4.963,22.672-12.252v9.46h17.991v-86.072h-19.747
		v46.991c0,14.888-8.045,21.866-16.529,22.177c-8.338-0.311-16.528-7.599-16.528-21.558v-47.61H445.012L445.012,119.069
		L445.012,119.069z M288.171,144.797c9.415-8.655,21.378-6.551,28.13-2.491l-33.387,30.696
		C279.666,165.723,278.751,153.895,288.171,144.797L288.171,144.797L288.171,144.797z"/>
	<path fill="#FFFFFF" d="M675.788,203.706h14.935v123.268h27.611V178.168h-47.125v18.549c-9.089-11.585-23.273-18.982-38.952-18.982
		c-23.265,0-47.725,15.521-47.725,53.33h26.845c-1.591-15.919,9.346-27.66,21.675-27.66c11.732,0,21.874,10.149,21.874,21.69
		c0,8.159-4.375,16.716-10.539,23.084l-58.263,54.325v24.874h95.248v-25.271h-57.865l43.35-41.191
		c10.141-9.354,14.715-21.69,14.715-34.228C681.571,218.354,679.471,210.539,675.788,203.706L675.788,203.706L675.788,203.706z"/>
	<path fill="#FFFFFF" d="M732.906,312.984h0.896l2.058,3.74h2.25l-2.272-3.894c0.605-0.033,1.109-0.226,1.513-0.576
		c0.404-0.351,0.612-0.933,0.628-1.741c-0.009-1.002-0.329-1.704-0.964-2.106c-0.634-0.401-1.529-0.598-2.687-0.581h-3.323v8.898
		h1.9L732.906,312.984L732.906,312.984z M732.906,311.479v-2.146h1.335c0.387-0.017,0.762,0.033,1.125,0.147
		c0.362,0.114,0.557,0.395,0.583,0.838c-0.003,0.479-0.122,0.796-0.358,0.948c-0.235,0.154-0.567,0.226-0.999,0.212H732.906
		L732.906,311.479z M742.572,312.286c-0.021-1.746-0.414-3.235-1.178-4.465c-0.763-1.229-1.769-2.169-3.018-2.817
		s-2.613-0.977-4.092-0.98c-1.486,0.005-2.855,0.332-4.108,0.98c-1.251,0.648-2.26,1.588-3.022,2.817
		c-0.764,1.229-1.156,2.719-1.178,4.465c0.021,1.748,0.414,3.237,1.178,4.466c0.764,1.23,1.771,2.169,3.022,2.818
		c1.252,0.647,2.622,0.976,4.108,0.98c1.479-0.006,2.843-0.333,4.092-0.98c1.249-0.649,2.255-1.588,3.018-2.818
		C742.159,315.523,742.551,314.034,742.572,312.286L742.572,312.286z M740.191,312.286c-0.015,1.276-0.288,2.391-0.822,3.342
		s-1.246,1.69-2.134,2.219c-0.889,0.529-1.872,0.798-2.95,0.806v-0.021c-1.105-0.001-2.104-0.264-2.994-0.789
		c-0.89-0.524-1.599-1.264-2.125-2.214s-0.796-2.063-0.808-3.341c0.012-1.275,0.28-2.388,0.808-3.335
		c0.526-0.948,1.235-1.685,2.125-2.209c0.89-0.523,1.889-0.791,2.994-0.799c1.078,0.008,2.061,0.274,2.95,0.799
		c0.889,0.525,1.6,1.262,2.134,2.209S740.178,311.01,740.191,312.286L740.191,312.286z"/>
	<polygon fill="#ECAD21" points="286.438,274.738 286.438,295.099 423.639,253.788 562.14,293.771 562.14,274.016 423.639,232.218 	
		"/>
	<polygon fill="#ECAD21" points="514.964,289.561 494.42,289.561 494.42,330.172 514.964,330.172 	"/>
	<polygon fill="#ECAD21" points="425.491,309.628 140.114,309.628 140.114,330.172 425.491,330.172 	"/>
	<path fill="#FFFFFF" d="M124.372,767.289c0.073-0.158,0.144-0.314,0.214-0.466c0.619-1.347,1.061-2.798,1.325-4.358
		c0.478-0.389,1.165-0.892,2.06-1.508s1.831-1.287,2.808-2.018l0.148,0.061c-0.75,2.157-1.271,4.178-1.562,6.061
		c-0.292,1.884-0.05,3.572,0.728,5.068c0.736,1.188,1.587,1.938,2.551,2.251c0.964,0.313,1.852,0.262,2.664-0.149
		c0.919-0.45,2.038-1.736,3.355-3.856c1.317-2.121,2.62-5.041,3.906-8.758l-1.163-1.833c-0.925,2.001-1.813,3.706-2.664,5.113
		c-0.852,1.409-1.69,2.34-2.519,2.793c-0.501,0.107-0.926,0.109-1.273,0.005c-0.348-0.104-0.675-0.375-0.982-0.812
		c-0.141-0.496-0.199-1.034-0.177-1.616c0.022-0.581,0.067-1.164,0.134-1.749c0.424-1.686,0.953-3.155,1.586-4.409
		c0.633-1.255,0.967-2.146,0.999-2.68c0.005-0.125-0.021-0.268-0.077-0.427c-0.057-0.161-0.131-0.344-0.223-0.55
		c-0.291-0.717-0.744-1.39-1.359-2.02c-0.615-0.63-1.329-0.805-2.142-0.524c-0.49,0.217-1.27,0.651-2.339,1.306
		c-1.069,0.654-2.596,1.566-4.578,2.738c0.019-0.378,0.009-0.696-0.03-0.957c-0.039-0.26-0.093-0.467-0.162-0.621
		c-0.161-0.352-0.354-0.559-0.577-0.621c-0.222-0.064-0.44-0.047-0.652,0.054c-0.202,0.09-0.37,0.188-0.503,0.294
		c-0.134,0.106-0.264,0.219-0.392,0.338c-1.339,1.845-2.201,3.683-2.584,5.514c-0.383,1.832-0.351,3.283,0.097,4.355
		c0.194,0.443,0.468,0.731,0.821,0.867c0.353,0.135,0.765,0.104,1.233-0.096c-0.09,0.446-0.191,0.896-0.305,1.35
		c-0.529,1.253-1.041,2.266-1.535,3.038c-0.512,0.801-1.098,1.375-1.758,1.724c-0.125-0.005-0.242,0.012-0.35,0.044
		c-0.108,0.034-0.214,0.075-0.316,0.122c0.159-1.29,0.188-2.554,0.085-3.792c-0.103-1.237-0.349-2.319-0.74-3.248
		c-0.351-0.813-0.796-1.41-1.335-1.788s-1.15-0.472-1.834-0.279c0.294-0.439,0.458-0.839,0.495-1.197
		c0.037-0.359-0.005-0.668-0.125-0.93c-0.223-0.492-0.648-0.771-1.277-0.836c-0.629-0.064-1.4,0.1-2.316,0.489
		c-2.202,0.982-4.148,2.479-5.839,4.486c-1.691,2.009-2.858,4.241-3.501,6.698c-0.643,2.459-0.493,4.852,0.45,7.18
		c0.526,1.219,1.242,2.308,2.148,3.267c0.907,0.959,1.949,1.624,3.126,1.993c1.177,0.37,2.435,0.281,3.772-0.268
		c1.178-0.511,2.278-1.355,3.302-2.535c1.023-1.182,1.906-2.669,2.647-4.463c1.564-0.682,2.904-1.596,4.021-2.742
		C122.969,771.248,123.807,769.548,124.372,767.289L124.372,767.289z M111.64,765.509c-0.157,1.238-0.227,2.45-0.207,3.636
		c0.02,1.187,0.215,2.299,0.586,3.34c0.224,0.367,0.494,0.72,0.812,1.057c0.317,0.335,0.659,0.641,1.027,0.916
		c-0.437,1.014-0.953,1.851-1.551,2.511c-0.598,0.66-1.19,1.146-1.778,1.455c-0.755,0.257-1.399,0.276-1.929,0.06
		c-0.53-0.218-0.903-0.639-1.116-1.264c-0.744-2.151-0.621-4.193,0.368-6.129C108.842,769.154,110.104,767.295,111.64,765.509
		L111.64,765.509z"/>
	<path fill="#FFFFFF" d="M107.022,724.237c0.217,0.526,0.48,1.021,0.79,1.487c0.36,0.476,0.773,1.036,1.242,1.686
		c0.469,0.649,0.965,1.179,1.489,1.592c0.524,0.412,1.048,0.503,1.572,0.271c0.469-0.262,0.755-0.711,0.856-1.346
		c0.102-0.635,0.219-1.431,0.351-2.386c0.133-0.955,0.481-2.047,1.046-3.272c2.178,1.552,4.108,2.598,5.788,3.141
		c1.68,0.541,3.103,0.562,4.269,0.061c0.251-0.111,0.455-0.21,0.61-0.295c0.155-0.086,0.307-0.161,0.455-0.229
		c1.133-0.914,2.306-2.43,3.517-4.548c1.212-2.117,2.645-4.947,4.3-8.488l-1.482-2.002c-1.436,2.714-2.686,4.944-3.75,6.69
		c-1.063,1.746-2.173,2.916-3.328,3.511c-0.587,0.196-1.218,0.217-1.896,0.06c-0.678-0.154-1.435-0.496-2.272-1.021
		c0.803-1.092,1.782-2.38,2.938-3.863c1.156-1.483,2.113-2.962,2.874-4.436c0.487-0.962,0.777-1.94,0.871-2.938
		c0.094-0.997-0.041-1.93-0.406-2.799c-0.342-0.77-0.925-1.48-1.75-2.14c-0.825-0.66-1.658-0.851-2.5-0.57
		c-0.637,0.312-1.312,0.896-2.028,1.758c-0.715,0.861-1.374,1.75-1.977,2.666c-0.603,0.915-1.054,1.608-1.355,2.081
		c-1.378,2.371-2.626,4.669-3.745,6.896c-1.119,2.227-2.112,4.262-2.981,6.104l-0.502-1.442c1.081-2.784,2.28-5.827,3.599-9.129
		c1.318-3.304,2.577-6.545,3.777-9.727c1.2-3.183,2.162-5.984,2.885-8.41c0.501-1.726,0.8-3.113,0.894-4.162
		c0.095-1.05,0.047-1.779-0.142-2.19c-0.169-0.379-0.377-0.6-0.624-0.66c-0.247-0.062-0.526-0.021-0.838,0.125
		c-0.506,0.222-1.05,0.622-1.632,1.199c-0.583,0.577-1.118,1.281-1.606,2.11c-1.116,1.876-2.343,4.189-3.681,6.938
		c-1.337,2.749-2.534,5.771-3.589,9.065c-0.8,2.554-1.479,5.084-2.039,7.595c-0.56,2.51-0.818,4.846-0.776,7.007
		c0.012,0.627,0.064,1.226,0.157,1.797l-0.404-0.561c-1.234,2.495-2.347,4.532-3.338,6.114c-0.99,1.582-2.328,2.779-4.012,3.592
		c-0.227,0.039-0.438,0.096-0.635,0.168c-0.197,0.072-0.397,0.154-0.601,0.244c1.289-1.759,2.255-3.713,2.897-5.86
		c0.643-2.148,0.54-4.302-0.31-6.457c-0.572-1.202-1.275-2.353-2.108-3.447c-0.834-1.098-1.396-1.922-1.688-2.478
		c-0.23-0.51-0.56-0.815-0.99-0.919c-0.429-0.102-0.918-0.031-1.468,0.209c-0.741,0.329-1.316,0.913-1.722,1.749
		c-0.407,0.837-0.388,1.764,0.059,2.777l-6.998,15.646c-0.147,0.375-0.229,0.741-0.247,1.1c-0.017,0.357,0.037,0.681,0.159,0.97
		c0.119,0.265,0.284,0.454,0.493,0.57c0.21,0.116,0.421,0.133,0.636,0.048c0.182-0.141,0.347-0.305,0.494-0.491
		c0.147-0.186,0.29-0.401,0.428-0.646c1.21,1.505,2.833,2.434,4.867,2.787c2.034,0.353,4.08,0.129,6.136-0.673
		c1.489-0.561,2.998-1.889,4.526-3.986C104,730.531,105.479,727.785,107.022,724.237L107.022,724.237z M115.618,717.914
		c1.329-2.575,2.617-4.638,3.867-6.188c1.25-1.55,2.231-2.479,2.942-2.788c0.25-0.108,0.42-0.152,0.512-0.131
		c0.091,0.021,0.155,0.086,0.192,0.193c0.202,0.404-0.04,1.355-0.725,2.852c-0.686,1.496-1.95,3.598-3.795,6.304
		c-0.382-0.125-0.856-0.215-1.422-0.269C116.624,717.834,116.1,717.843,115.618,717.914L115.618,717.914z M95.47,723.258
		c0.068,0.157,0.145,0.335,0.23,0.531s0.173,0.398,0.264,0.608c0.517,1.213,0.611,2.419,0.283,3.613
		c-0.329,1.196-1.018,2.403-2.068,3.619c-1.036-0.634-1.915-1.103-2.637-1.401c-0.722-0.302-1.624-0.252-2.704,0.147
		c0.788-1.618,1.572-3.404,2.353-5.356c0.781-1.953,1.507-3.592,2.177-4.912L95.47,723.258L95.47,723.258z"/>
	<path fill="#FFFFFF" d="M71.548,733.497l-0.342,7.16c-0.016,0.537,0.021,1.104,0.109,1.705c0.088,0.601,0.225,1.187,0.409,1.761
		c0.373,0.75,0.86,1.313,1.465,1.693c0.604,0.382,1.354,0.448,2.248,0.202c0.841-0.206,1.937-1.118,3.287-2.737
		s2.862-4.481,4.536-8.585l-1.434-1.039c-0.754,1.35-1.387,2.437-1.9,3.261c-0.514,0.823-0.997,1.369-1.452,1.636
		c-0.228,0.042-0.445,0.036-0.652-0.017c-0.208-0.052-0.413-0.171-0.616-0.356l0.509-7.907l4.104-2.024
		c0.042-1.048,0.178-2.276,0.41-3.684c0.232-1.406,0.485-2.687,0.759-3.835l-1.657,0.291l-3.195,1.566L80,705.604
		c-0.014-0.179-0.045-0.381-0.094-0.604c-0.049-0.224-0.128-0.468-0.238-0.728c-0.257-0.623-0.627-1.101-1.111-1.431
		c-0.483-0.33-1.087-0.352-1.811-0.063c-0.307,0.13-0.615,0.33-0.924,0.599c-0.309,0.269-0.639,0.631-0.989,1.086
		c-1.692,2.418-3.325,5.061-4.898,7.927c-1.573,2.867-3.041,5.607-4.401,8.223l-5.654,11.363c-0.771,0.337-1.405,0.637-1.9,0.898
		c-0.495,0.264-0.885,0.489-1.168,0.676c-0.352,0.097-0.609,0.136-0.771,0.119c-0.162-0.018-0.273-0.103-0.333-0.256
		c-0.082-0.209,0.08-0.468,0.484-0.779c0.404-0.311,1.001-0.667,1.79-1.066c0.366-0.168,0.637-0.358,0.812-0.573
		c0.176-0.216,0.238-0.392,0.186-0.531c-0.063-0.152-0.218-0.213-0.463-0.181s-0.599,0.148-1.062,0.354
		c-1.677,0.812-3,1.843-3.97,3.092c-0.969,1.248-1.68,2.491-2.135,3.729c-0.454,1.237-0.749,2.246-0.882,3.024
		c-0.066,0.271-0.104,0.54-0.113,0.803s0.016,0.534,0.076,0.812c0.165,0.278,0.51,0.43,1.033,0.452
		c0.524,0.022,1.286-0.177,2.285-0.599c0.317-0.201,0.665-0.408,1.045-0.622s0.778-0.411,1.195-0.595l-2.109,6.203
		c-0.695,0.641-1.241,1.244-1.638,1.809c-0.397,0.566-0.95,1.402-1.657,2.509c-0.374,0.544-0.754,1.334-1.14,2.374
		c-0.386,1.04-0.671,2.091-0.857,3.153c-0.186,1.061-0.163,1.896,0.066,2.506c0.15,0.37,0.404,0.589,0.76,0.654
		s0.856-0.069,1.5-0.403c1.016-0.576,1.765-1.383,2.249-2.42c0.484-1.038,0.847-1.923,1.087-2.655l6.294-15.704L71.548,733.497
		L71.548,733.497z M64.677,729.278l9.962-19.445l-2.058,15.404L64.677,729.278L64.677,729.278z"/>
	<path fill="#FFFFFF" d="M91.685,771.88c-1.135,0.808-2.09,1.464-2.867,1.972c-0.777,0.507-1.514,0.996-2.211,1.469
		c-0.697,0.472-1.491,1.059-2.384,1.762c-2.19,1.692-3.76,3.039-4.713,4.04c-0.952,1-1.5,1.84-1.642,2.518
		c-0.143,0.679-0.095,1.378,0.144,2.101c0.024,0.049,0.043,0.105,0.06,0.174c0.017,0.068,0.021,0.162,0.016,0.285
		c0.251,0.439,0.616,0.676,1.092,0.711c0.476,0.034,1.075-0.107,1.798-0.426c0.997-0.515,2.171-1.15,3.523-1.91
		c1.351-0.76,2.821-1.494,4.41-2.203l-3.297,8.994c-1.2,0.714-2.238,1.931-3.114,3.649c-0.876,1.72-1.472,3.464-1.786,5.234
		s-0.229,3.088,0.255,3.953c0.31,0.408,0.701,0.505,1.172,0.291c0.83-0.414,1.689-1.278,2.578-2.596
		c0.89-1.316,1.698-2.71,2.424-4.183s1.26-2.646,1.602-3.524c1.152-2.896,2.221-5.64,3.208-8.227
		c0.986-2.586,1.842-5.005,2.567-7.256c1.477-0.771,2.517-1.428,3.121-1.965c0.604-0.536,0.964-0.974,1.08-1.312
		c0.116-0.339,0.18-0.6,0.191-0.777l0.832-5.035l-3.842,0.927c0.608-3.102,1.035-6.48,1.279-10.141
		c0.245-3.658,0.072-7.071-0.515-10.236c-0.41-1.469-1.292-2.174-2.647-2.116c-1.355,0.056-2.874,0.471-4.557,1.243
		c-1.646,0.732-3.359,1.655-5.14,2.768c-1.781,1.112-3.484,2.234-5.111,3.369c-1.628,1.134-3.035,2.101-4.221,2.898
		c-3.141,2.141-5.456,3.854-6.945,5.142c-1.49,1.287-2.493,2.664-3.009,4.131c-0.516,1.467-0.886,3.539-1.107,6.218
		c-0.068,1.947,0.031,3.359,0.299,4.237c0.453,0.736,1.021,0.961,1.707,0.676c0.671-0.415,1.427-0.988,2.268-1.721
		c0.632-0.556,1.49-1.282,2.575-2.184c1.085-0.9,2.061-1.746,2.926-2.539c0.866-0.793,1.286-1.302,1.26-1.529
		c-0.071-0.213-0.437-0.213-1.099,0c-0.662,0.213-1.736,0.673-3.222,1.381c2.64-2.93,5.545-5.569,8.713-7.92
		c3.168-2.352,6.51-4.549,10.024-6.598c0.147-0.062,0.371-0.16,0.673-0.291c0.608-0.27,1.08-0.34,1.414-0.213
		s0.607,0.448,0.819,0.969c0.4,1.064,0.493,2.834,0.278,5.307C92.352,765.866,92.058,768.693,91.685,771.88L91.685,771.88z"/>
	<polygon fill="#FFFFFF" points="811.995,625.851 46.505,625.851 46.505,629.41 811.995,629.41 	"/>
</g>
</svg>
