<?xml version="1.0" encoding="utf-8"?>
<!-- Generator: Adobe Illustrator 15.0.0, SVG Export Plug-In . SVG Version: 6.00 Build 0)  -->
<!DOCTYPE svg PUBLIC "-//W3C//DTD SVG 1.1//EN" "http://www.w3.org/Graphics/SVG/1.1/DTD/svg11.dtd">
<svg version="1.1" id="Layer_1" xmlns="http://www.w3.org/2000/svg" xmlns:xlink="http://www.w3.org/1999/xlink" x="0px" y="0px"
	 width="835.842px" height="835.842px" viewBox="25 10.105 835.842 835.842" enable-background="new 25 10.105 835.842 835.842"
	 xml:space="preserve">
<g>
	<polygon fill="#FFFFFF" points="860.842,10.105 25,10.105 25,845.947 860.842,845.947 	"/>
	<polygon fill="#F5E527" points="843.428,27.519 42.414,27.519 42.414,828.533 843.428,828.533 	"/>
	<path d="M759.371,287.303h2.997c1.539,0,3.206,0.294,3.206,2.208c0,2.273-1.835,2.37-3.834,2.37h-2.37L759.371,287.303
		L759.371,287.303L759.371,287.303z M757.128,299.933h2.243v-6.248h2.403l3.96,6.248h2.406l-4.139-6.412
		c2.164-0.233,3.812-1.313,3.812-3.913c0-2.763-1.619-4.108-5.073-4.108h-5.613L757.128,299.933L757.128,299.933L757.128,299.933z
		 M749.524,292.633c0,7.132,5.665,12.461,12.452,12.461c6.75,0,12.351-5.329,12.351-12.461c0-6.938-5.599-12.294-12.351-12.294
		C755.189,280.343,749.524,285.697,749.524,292.633L749.524,292.633L749.524,292.633z M751.771,292.633
		c0-5.885,4.402-10.489,10.204-10.489c5.749,0,10.105,4.601,10.105,10.489c0,6.065-4.357,10.655-10.105,10.655
		C756.172,303.29,751.771,298.701,751.771,292.633L751.771,292.633z"/>
	<polygon points="230.962,253.906 201.958,253.906 186.676,168.564 186.366,168.564 171.082,253.906 141.612,253.906 
		111.515,130.146 140.52,130.146 156.27,220.644 156.58,220.644 172.955,130.146 200.242,130.146 216.536,220.63 216.85,220.63 
		232.586,130.146 261.575,130.146 	"/>
	<path d="M334.165,216.243c1.176-30.662-12.504-54.899-39.943-54.899c-22.591,0-41.274,19.683-41.274,47.449
		c0,30.083,16.917,47.692,41.863,47.692c17.137,0,33.469-8.976,38.029-29.697h-23.392c-2.365,6.562-8.278,9.844-14.341,9.844
		c-10.646,0-16.708-8.117-17.151-20.389H334.165L334.165,216.243L334.165,216.243z M277.958,199.786
		c1.478-11.047,7.392-18.587,16.264-18.587c8.428,0,14.49,8.415,14.934,18.587H277.958L277.958,199.786z"/>
	<path d="M368.751,152.579H343.74v-22.43h25.011V152.579L368.751,152.579L368.751,152.579z M343.74,163.922h25.011v89.984H343.74
		V163.922L343.74,163.922z"/>
	<path d="M433.013,196.824c-0.152-7.655-6.097-13.048-12.656-13.048c-14.481,0-16.771,14.093-16.771,26.623
		c0,11.654,4.421,23.655,15.398,23.655c8.996,0,13.571-5.912,14.789-15.481h25.159c-2.289,24.111-18.755,37.913-39.796,37.913
		c-23.81,0-41.545-18.463-41.545-46.087c0-28.693,16.054-49.053,41.545-49.053c19.667,0,37.203,11.738,39.032,35.48L433.013,196.824
		L433.013,196.824z"/>
	<path d="M469.406,130.146h26.511v46.089h0.313c4.06-9.178,14.987-14.891,24.67-14.891c26.979,0,29.158,21.816,29.158,34.816v57.746
		h-26.506v-43.525c0-12.311,1.242-24.8-13.273-24.8c-9.989,0-14.362,9.365-14.362,19.253v49.072h-26.512L469.406,130.146
		L469.406,130.146z"/>
	<path d="M640.64,216.243c1.176-30.662-12.502-54.899-39.948-54.899c-22.584,0-41.271,19.683-41.271,47.449
		c0,30.083,16.923,47.692,41.868,47.692c17.134,0,33.465-8.976,38.027-29.697H615.92c-2.357,6.562-8.274,9.844-14.339,9.844
		c-10.641,0-16.712-8.117-17.149-20.389H640.64L640.64,216.243L640.64,216.243z M584.432,199.786
		c1.475-11.047,7.388-18.587,16.258-18.587c8.436,0,14.496,8.415,14.944,18.587H584.432L584.432,199.786z"/>
	<path d="M649.664,163.922h22.769v15.676h0.275c3.465-11.421,11.507-17.48,21.625-17.48c1.806,0,3.738,0.176,5.544,0.695v26.82
		c-3.054-1.04-5.822-1.73-9.006-1.73c-11.643,0-17.743,10.053-17.743,21.449v44.558h-23.464V163.922L649.664,163.922z"/>
	<path d="M751.383,182.994h-13.651v40.859c0,7.095,3.118,8.65,7.926,8.65c1.823,0,3.771-0.344,5.726-0.344v21.652
		c-4.032,0.175-8.061,0.866-12.09,0.866c-18.871,0-23.681-7.276-23.681-31.693v-39.993h-11.173v-19.059h11.173V136.73h22.118v27.204
		h13.651L751.383,182.994L751.383,182.994z"/>
	<path d="M757.028,240.112h11.729v12.239c0,10.595-7.006,13.855-11.729,14.447v-5.926c3.399-1.035,4.783-3.115,5.163-6.966h-5.163
		V240.112L757.028,240.112z"/>
	<path d="M293.04,369.352h22.948V332.74h17.374c10.721,0,12.198,10.423,12.817,20.563c0.245,2.813,0.615,12.671,2.592,16.05h22.72
		c-3.087-3.658-3.459-18.447-3.703-22.674c-0.742-9.573-3.457-21.479-12.844-23.995v-0.279c9.333-4.049,13.899-14.231,13.899-24.959
		c0-20.146-15.299-28.133-30.856-28.133H293.04V369.352L293.04,369.352L293.04,369.352z M315.987,290.196h18.29
		c6.426,0,11.62,3.344,11.62,10.729c0,7.521-3.71,11.703-10.63,11.703h-19.28V290.196L315.987,290.196z"/>
	<path d="M434.455,338.902c0.922-24.626-9.777-44.298-31.175-44.298c-17.601,0-32.208,16.054-32.208,38.252
		c0,24.169,13.229,38.534,32.669,38.534c13.348,0,26.114-7.32,29.679-24.066h-18.288c-1.841,5.245-6.443,7.87-11.162,7.87
		c-8.283,0-13.002-6.49-13.347-16.292H434.455L434.455,338.902L434.455,338.902z M390.623,325.544
		c1.15-8.763,5.755-14.745,12.656-14.745c6.561,0,11.275,6.682,11.622,14.745H390.623L390.623,325.544z"/>
	<path d="M460.142,319.074c0.992-6.125,4.707-9.044,10.528-9.044c4.339,0,10.162,2.087,10.162,7.511c0,4.468-1.981,5.87-5.574,6.711
		c-14.621,3.356-37.237,1.535-37.237,25.187c0,14.974,9.58,21.972,21.749,21.972c7.683,0,15.736-2.517,21.188-8.959
		c0.245,2.406,0.492,4.65,1.238,6.894h21.184c-2.473-5.749-2.473-12.484-2.473-18.642v-31.774c0-20.545-14.742-24.332-29.949-24.332
		c-7.282,0-14.687,1.403-20.362,5.046c-5.679,3.79-9.629,9.96-10.002,19.429L460.142,319.074L460.142,319.074L460.142,319.074z
		 M458.902,348.464c0-5.742,3.965-7.976,8.673-9.238c4.583-1.397,10.035-1.817,13.008-3.913c0.495,14.97-2.85,21.404-12.883,21.404
		C462.988,356.717,458.902,354.34,458.902,348.464L458.902,348.464z"/>
	<polygon points="509.411,269.312 530.293,269.312 530.293,369.352 509.411,369.352 	"/>
	<path d="M574.844,312.092H563.06v33.012c0,5.736,2.697,6.993,6.85,6.993c1.57,0,3.258-0.283,4.933-0.283v17.575
		c-3.48,0.142-6.957,0.706-10.435,0.706c-16.267,0-20.426-5.909-20.426-25.695v-32.316h-9.649v-15.43h9.649v-22.018h19.077v22.018
		h11.783v15.438H574.844z"/>
	<path d="M575.707,333.069c0,21.753,14.1,38.321,34.356,38.321c20.263,0,34.485-16.568,34.485-38.321
		c0-21.752-14.222-38.465-34.485-38.465C589.807,294.604,575.707,311.315,575.707,333.069L575.707,333.069L575.707,333.069z
		 M597.107,333.069c0-9.202,3.019-20.204,12.954-20.204c9.94,0,13.088,11.004,13.088,20.204c0,9.193-3.147,20.063-13.088,20.063
		C600.126,353.133,597.107,342.263,597.107,333.069L597.107,333.069z"/>
	<path d="M649.851,296.643h18.973v12.612h0.237c2.872-9.252,9.544-14.16,17.94-14.16c1.495,0,3.102,0.142,4.601,0.562v21.727
		c-2.534-0.843-4.831-1.402-7.478-1.402c-9.665,0-14.716,8.138-14.716,17.365v36.003h-19.558V296.643L649.851,296.643z"/>
	<path d="M713.78,345.372c0,3.641,1.354,6.302,3.464,8.08c2.015,1.674,4.903,2.511,7.911,2.511c4.145,0,10.052-1.954,10.052-7.68
		c0-5.584-6.656-6.7-10.425-7.679c-13.339-3.767-29.8-4.186-29.8-23.736c0-17.5,16.585-22.268,29.292-22.268
		c14.245,0,28.861,4.626,29.594,23.442h-19.286c0-3.07-0.985-5.03-2.769-6.196c-1.755-1.26-4.145-1.816-6.783-1.816
		c-3.512,0-9.166,0.418-9.166,5.444c0,6.841,14.313,8.097,24.012,10.47c12.895,2.933,16.211,13.545,16.211,19.548
		c0,19.448-16.211,25.896-30.797,25.896c-15.315,0-30.799-5.748-31.419-26.021h19.911v0.005H713.78z"/>
	<polygon points="238.771,768.766 235.134,768.766 235.134,786.18 238.771,786.18 	"/>
	<path d="M253.576,777.254c-0.028-1.422-0.462-2.495-1.296-3.224c-0.836-0.729-1.898-1.091-3.188-1.094
		c-0.812,0.011-1.477,0.148-1.995,0.405c-0.517,0.257-0.926,0.558-1.222,0.901c-0.297,0.343-0.519,0.651-0.667,0.923h-0.049v-1.889
		h-3.249v12.902h3.394v-7.4c0.017-0.984,0.273-1.728,0.77-2.229c0.497-0.503,1.129-0.752,1.9-0.755
		c0.707,0.016,1.218,0.165,1.531,0.449c0.314,0.287,0.509,0.626,0.584,1.017c0.075,0.391,0.105,0.752,0.092,1.081v7.836h3.393
		L253.576,777.254L253.576,777.254z"/>
	<path d="M268.498,768.766h-3.394v6.184h-0.049c-0.252-0.444-0.668-0.882-1.25-1.315c-0.581-0.433-1.409-0.663-2.488-0.696
		c-0.958-0.001-1.842,0.244-2.65,0.731c-0.806,0.489-1.457,1.222-1.949,2.207c-0.493,0.982-0.746,2.219-0.758,3.706
		c-0.003,1.201,0.18,2.325,0.556,3.373s0.962,1.899,1.764,2.555c0.8,0.651,1.836,0.991,3.111,1.009
		c0.721,0.009,1.417-0.135,2.088-0.437c0.672-0.303,1.221-0.809,1.651-1.526h0.048v1.626h3.32V768.766L268.498,768.766z
		 M259.452,779.826c-0.015-1.058,0.196-1.973,0.633-2.742c0.438-0.771,1.189-1.175,2.255-1.214c0.769,0.013,1.366,0.22,1.791,0.617
		c0.423,0.399,0.719,0.912,0.884,1.542c0.167,0.626,0.244,1.291,0.239,1.991c0.009,0.994-0.223,1.85-0.695,2.573
		c-0.473,0.723-1.245,1.104-2.315,1.137c-0.722-0.02-1.287-0.242-1.694-0.674c-0.408-0.429-0.694-0.942-0.858-1.539
		C259.524,780.919,259.445,780.354,259.452,779.826L259.452,779.826z"/>
	<path d="M279.107,782.397c-0.148,0.464-0.427,0.813-0.837,1.053c-0.41,0.239-0.858,0.357-1.347,0.359
		c-0.899-0.025-1.561-0.224-1.984-0.604c-0.423-0.381-0.699-0.816-0.829-1.304c-0.129-0.491-0.204-0.905-0.222-1.251h8.854v-0.604
		c-0.027-1.943-0.362-3.433-1.006-4.464c-0.642-1.032-1.426-1.732-2.351-2.112c-0.926-0.376-1.829-0.551-2.705-0.531
		c-1.401,0.023-2.518,0.289-3.351,0.8s-1.454,1.139-1.861,1.88c-0.407,0.739-0.675,1.462-0.801,2.168
		c-0.127,0.707-0.184,1.266-0.171,1.677c0.04,2.616,0.656,4.459,1.848,5.521c1.192,1.06,2.719,1.574,4.579,1.535
		c0.749,0.007,1.5-0.12,2.253-0.377c0.753-0.261,1.435-0.692,2.043-1.297c0.608-0.604,1.068-1.421,1.379-2.45L279.107,782.397
		L279.107,782.397z M273.986,778.446c0.095-0.857,0.36-1.524,0.795-1.999c0.435-0.474,1.052-0.714,1.851-0.721
		c0.574-0.018,1.124,0.175,1.648,0.575c0.523,0.401,0.849,1.116,0.974,2.145H273.986L273.986,778.446z"/>
	<path d="M288.166,780.021c-0.008-0.698,0.068-1.365,0.231-1.99c0.163-0.627,0.452-1.14,0.873-1.54
		c0.421-0.398,1.016-0.604,1.784-0.617c1.064,0.037,1.816,0.441,2.254,1.212c0.437,0.772,0.647,1.686,0.633,2.745
		c0.005,0.53-0.074,1.094-0.239,1.691c-0.165,0.598-0.451,1.11-0.858,1.54c-0.408,0.429-0.973,0.654-1.695,0.673
		c-1.069-0.033-1.836-0.414-2.302-1.136C288.382,781.872,288.154,781.015,288.166,780.021L288.166,780.021z M288.166,773.279h-3.249
		v17.944h3.394v-6.69h0.047c0.184,0.387,0.546,0.809,1.084,1.258c0.538,0.446,1.391,0.693,2.557,0.729
		c1.273-0.019,2.312-0.355,3.112-1.008c0.8-0.654,1.388-1.504,1.763-2.554c0.374-1.049,0.56-2.173,0.556-3.374
		c-0.014-1.487-0.267-2.723-0.758-3.707c-0.491-0.982-1.142-1.719-1.949-2.206c-0.808-0.486-1.691-0.731-2.651-0.731
		c-1.119,0.029-1.968,0.268-2.548,0.722c-0.58,0.452-1.016,0.949-1.31,1.483h-0.048V773.279L288.166,773.279z"/>
	<path d="M307.385,782.397c-0.148,0.464-0.427,0.813-0.837,1.053c-0.409,0.239-0.857,0.357-1.347,0.359
		c-0.899-0.025-1.561-0.224-1.986-0.604c-0.423-0.382-0.699-0.816-0.828-1.304c-0.128-0.491-0.203-0.905-0.22-1.251h8.853v-0.604
		c-0.027-1.943-0.362-3.433-1.005-4.464c-0.642-1.032-1.426-1.732-2.352-2.112c-0.926-0.376-1.828-0.551-2.704-0.531
		c-1.401,0.023-2.519,0.289-3.352,0.8s-1.453,1.139-1.86,1.88c-0.407,0.739-0.675,1.462-0.802,2.168
		c-0.125,0.707-0.183,1.266-0.17,1.677c0.039,2.616,0.656,4.459,1.847,5.521c1.192,1.06,2.719,1.574,4.579,1.535
		c0.748,0.007,1.5-0.12,2.254-0.377c0.752-0.261,1.434-0.692,2.042-1.297c0.607-0.604,1.068-1.421,1.379-2.45L307.385,782.397
		L307.385,782.397z M302.264,778.446c0.096-0.857,0.36-1.524,0.795-1.999c0.435-0.474,1.051-0.714,1.851-0.721
		c0.574-0.018,1.124,0.175,1.648,0.575c0.523,0.401,0.848,1.116,0.973,2.145H302.264L302.264,778.446z"/>
	<path d="M324.932,777.254c-0.03-1.422-0.461-2.495-1.297-3.224c-0.834-0.729-1.897-1.091-3.188-1.094
		c-0.812,0.011-1.476,0.148-1.995,0.405c-0.518,0.257-0.926,0.558-1.221,0.901c-0.297,0.343-0.52,0.651-0.668,0.923h-0.048v-1.889
		h-3.247v12.902h3.392v-7.4c0.017-0.984,0.275-1.728,0.771-2.229c0.497-0.503,1.13-0.752,1.9-0.755
		c0.707,0.016,1.218,0.165,1.532,0.449c0.314,0.287,0.51,0.626,0.583,1.017c0.075,0.391,0.105,0.752,0.092,1.081v7.836h3.393
		L324.932,777.254L324.932,777.254z"/>
	<path d="M339.855,768.766h-3.393v6.184h-0.049c-0.253-0.444-0.669-0.882-1.25-1.315c-0.581-0.433-1.41-0.663-2.488-0.696
		c-0.96-0.001-1.843,0.244-2.652,0.731c-0.807,0.489-1.457,1.222-1.948,2.207c-0.493,0.982-0.745,2.219-0.759,3.706
		c-0.003,1.201,0.181,2.325,0.557,3.373c0.375,1.048,0.962,1.899,1.763,2.555c0.8,0.651,1.838,0.991,3.111,1.009
		c0.72,0.009,1.416-0.135,2.086-0.437c0.671-0.303,1.222-0.809,1.651-1.526h0.048v1.626h3.321L339.855,768.766L339.855,768.766z
		 M330.808,779.826c-0.015-1.058,0.197-1.973,0.634-2.742c0.437-0.771,1.188-1.175,2.253-1.214c0.771,0.013,1.366,0.22,1.791,0.617
		c0.424,0.399,0.72,0.912,0.884,1.542c0.165,0.626,0.244,1.291,0.236,1.991c0.01,0.994-0.222,1.85-0.695,2.573
		c-0.473,0.723-1.245,1.104-2.316,1.137c-0.722-0.02-1.287-0.242-1.694-0.674c-0.409-0.429-0.695-0.942-0.858-1.539
		C330.881,780.919,330.801,780.354,330.808,779.826L330.808,779.826z"/>
	<path d="M350.465,782.397c-0.15,0.464-0.428,0.813-0.838,1.053c-0.409,0.237-0.858,0.357-1.348,0.359
		c-0.898-0.025-1.561-0.224-1.983-0.604c-0.423-0.382-0.699-0.816-0.829-1.304c-0.13-0.491-0.203-0.905-0.22-1.251h8.853v-0.604
		c-0.028-1.943-0.361-3.433-1.006-4.464c-0.643-1.032-1.426-1.732-2.352-2.112c-0.925-0.376-1.828-0.551-2.705-0.531
		c-1.401,0.023-2.519,0.289-3.35,0.8c-0.833,0.511-1.453,1.139-1.86,1.88c-0.409,0.739-0.676,1.462-0.802,2.168
		c-0.126,0.707-0.183,1.266-0.172,1.677c0.04,2.616,0.657,4.459,1.849,5.521c1.193,1.06,2.719,1.574,4.58,1.535
		c0.747,0.007,1.499-0.12,2.253-0.377c0.753-0.261,1.435-0.692,2.042-1.297c0.608-0.604,1.067-1.421,1.381-2.45L350.465,782.397
		L350.465,782.397z M345.343,778.446c0.097-0.857,0.362-1.524,0.796-1.999c0.434-0.474,1.051-0.714,1.852-0.721
		c0.574-0.018,1.125,0.175,1.647,0.575c0.522,0.401,0.848,1.116,0.974,2.145H345.343L345.343,778.446z"/>
	<path d="M368.011,777.254c-0.029-1.422-0.463-2.495-1.296-3.224c-0.836-0.729-1.898-1.091-3.188-1.094
		c-0.811,0.011-1.476,0.148-1.993,0.405s-0.927,0.558-1.223,0.901c-0.298,0.343-0.52,0.651-0.668,0.923h-0.048v-1.889h-3.249v12.902
		h3.393v-7.4c0.019-0.984,0.274-1.728,0.771-2.229c0.498-0.503,1.129-0.752,1.898-0.755c0.707,0.016,1.22,0.165,1.533,0.449
		c0.315,0.287,0.51,0.626,0.583,1.017c0.076,0.391,0.105,0.752,0.093,1.081v7.836h3.393L368.011,777.254L368.011,777.254z"/>
	<path d="M374.954,769.786h-3.394v3.493h-1.746v2.422h1.746v7.838c-0.04,0.847,0.172,1.522,0.634,2.021
		c0.46,0.497,1.404,0.752,2.831,0.767h0.438c0.532-0.004,1.066-0.022,1.601-0.048v-2.569c-0.123,0.013-0.241,0.024-0.361,0.032
		c-0.12,0.01-0.233,0.014-0.343,0.018c-0.663,0.003-1.071-0.078-1.222-0.241c-0.149-0.164-0.212-0.432-0.184-0.802v-7.014h2.111
		v-2.422h-2.111V769.786L374.954,769.786z"/>
	<polygon points="382.719,768.766 379.326,768.766 379.326,786.18 382.719,786.18 	"/>
	<path d="M397.176,773.279h-3.589l-2.643,9.508h-0.05l-2.764-9.508h-3.783l4.754,13.438c-0.153,0.855-0.41,1.401-0.771,1.634
		s-0.847,0.335-1.461,0.308c-0.291-0.005-0.511-0.024-0.656-0.049v2.711c0.248,0.014,0.505,0.026,0.774,0.032
		c0.27,0.01,0.521,0.016,0.755,0.017c0.963,0.022,1.716-0.093,2.253-0.34c0.54-0.248,1.005-0.762,1.393-1.54
		c0.388-0.78,0.839-1.955,1.348-3.526L397.176,773.279L397.176,773.279z"/>
	<path d="M405.396,777.474c0.027,2.026,0.356,3.654,0.985,4.881c0.629,1.226,1.408,2.147,2.336,2.766s1.849,1.03,2.767,1.235
		c0.92,0.204,1.679,0.3,2.279,0.284c0.603,0.018,1.362-0.078,2.281-0.284c0.917-0.205,1.839-0.616,2.767-1.235
		c0.928-0.618,1.707-1.54,2.336-2.766c0.631-1.227,0.958-2.856,0.983-4.881c-0.025-2.027-0.353-3.655-0.983-4.882
		c-0.629-1.223-1.408-2.146-2.336-2.767c-0.928-0.617-1.85-1.03-2.767-1.234c-0.92-0.204-1.679-0.301-2.281-0.283
		c-0.601-0.019-1.359,0.078-2.279,0.283c-0.918,0.205-1.839,0.615-2.767,1.234c-0.928,0.62-1.706,1.544-2.336,2.767
		C405.752,773.819,405.423,775.446,405.396,777.474L405.396,777.474z M409.033,777.474c0.023-1.609,0.285-2.86,0.791-3.744
		c0.504-0.889,1.117-1.505,1.84-1.849s1.424-0.511,2.101-0.494c0.677-0.015,1.378,0.15,2.102,0.494
		c0.721,0.344,1.337,0.96,1.839,1.849c0.506,0.888,0.77,2.136,0.792,3.744c-0.022,1.608-0.286,2.858-0.792,3.745
		c-0.502,0.888-1.117,1.504-1.839,1.848c-0.725,0.343-1.425,0.512-2.102,0.493c-0.677,0.019-1.378-0.15-2.101-0.493
		s-1.336-0.96-1.84-1.848C409.318,780.332,409.057,779.083,409.033,777.474L409.033,777.474z"/>
	<polygon points="441.844,773.279 438.351,773.279 436.339,782.543 436.289,782.543 434.35,773.279 430.929,773.279 429.11,782.543 
		429.062,782.543 427.05,773.279 423.436,773.279 427.072,786.18 430.566,786.18 432.579,776.769 432.627,776.769 434.64,786.18 
		438.133,786.18 	"/>
	<path d="M455.303,777.254c-0.027-1.422-0.459-2.495-1.296-3.224c-0.835-0.729-1.896-1.091-3.188-1.094
		c-0.812,0.011-1.477,0.148-1.995,0.405c-0.518,0.257-0.927,0.558-1.224,0.901c-0.298,0.343-0.518,0.651-0.666,0.923h-0.049v-1.889
		h-3.248v12.902h3.394v-7.4c0.019-0.984,0.271-1.728,0.771-2.229c0.497-0.503,1.129-0.752,1.899-0.755
		c0.708,0.016,1.219,0.165,1.533,0.449c0.315,0.287,0.508,0.626,0.583,1.017c0.076,0.391,0.104,0.752,0.093,1.081v7.836h3.393
		V777.254L455.303,777.254z"/>
	<path d="M466.034,782.397c-0.147,0.464-0.426,0.813-0.837,1.053c-0.41,0.237-0.857,0.357-1.345,0.359
		c-0.901-0.025-1.564-0.224-1.986-0.604c-0.427-0.382-0.699-0.816-0.83-1.304c-0.131-0.491-0.203-0.905-0.223-1.251h8.854v-0.604
		c-0.027-1.943-0.363-3.433-1.005-4.464c-0.646-1.032-1.428-1.732-2.353-2.112c-0.926-0.376-1.828-0.551-2.705-0.531
		c-1.401,0.023-2.517,0.289-3.351,0.8c-0.832,0.511-1.451,1.139-1.86,1.88c-0.408,0.739-0.675,1.462-0.8,2.168
		c-0.128,0.707-0.185,1.266-0.172,1.677c0.041,2.616,0.654,4.459,1.847,5.521c1.193,1.06,2.718,1.574,4.58,1.535
		c0.747,0.007,1.499-0.12,2.251-0.377c0.753-0.261,1.436-0.692,2.04-1.297c0.609-0.604,1.068-1.421,1.381-2.45L466.034,782.397
		L466.034,782.397z M460.912,778.446c0.096-0.857,0.361-1.524,0.798-1.999c0.435-0.474,1.051-0.714,1.849-0.721
		c0.575-0.018,1.125,0.175,1.647,0.575c0.526,0.401,0.851,1.116,0.975,2.145H460.912L460.912,778.446z"/>
	<path d="M483.702,768.766h-3.394v6.184h-0.048c-0.252-0.444-0.67-0.882-1.25-1.315c-0.58-0.433-1.408-0.663-2.487-0.696
		c-0.959-0.001-1.846,0.244-2.65,0.731c-0.809,0.489-1.459,1.222-1.949,2.207c-0.493,0.982-0.745,2.219-0.758,3.706
		c-0.004,1.201,0.181,2.325,0.556,3.373c0.374,1.048,0.964,1.899,1.763,2.555c0.8,0.65,1.838,0.991,3.113,1.009
		c0.719,0.009,1.416-0.135,2.085-0.437c0.673-0.3,1.221-0.809,1.652-1.526h0.048v1.626h3.32L483.702,768.766L483.702,768.766z
		 M474.655,779.826c-0.016-1.058,0.197-1.973,0.634-2.742c0.436-0.771,1.188-1.175,2.253-1.214c0.771,0.013,1.368,0.22,1.794,0.617
		c0.424,0.399,0.718,0.912,0.882,1.542c0.167,0.626,0.247,1.291,0.236,1.991c0.011,0.994-0.221,1.85-0.694,2.573
		c-0.476,0.723-1.245,1.104-2.314,1.137c-0.723-0.02-1.288-0.242-1.695-0.674c-0.406-0.429-0.696-0.942-0.855-1.539
		C474.728,780.919,474.65,780.354,474.655,779.826L474.655,779.826z"/>
	<path d="M497.413,782.59h6.425l1.117,3.592h3.951l-6.136-17.417h-4.196l-6.208,17.417h3.832L497.413,782.59L497.413,782.59z
		 M500.615,772.695h0.048l2.159,6.89h-4.438L500.615,772.695L500.615,772.695z"/>
	<path d="M522.624,777.254c-0.028-1.422-0.463-2.495-1.296-3.224c-0.836-0.729-1.899-1.091-3.191-1.094
		c-0.809,0.011-1.473,0.148-1.991,0.405c-0.517,0.257-0.924,0.558-1.223,0.901c-0.294,0.343-0.517,0.651-0.667,0.923h-0.049v-1.889
		h-3.248v12.902h3.393v-7.4c0.019-0.984,0.274-1.728,0.771-2.229c0.497-0.503,1.129-0.752,1.899-0.755
		c0.705,0.016,1.216,0.165,1.531,0.449c0.312,0.287,0.509,0.626,0.585,1.017c0.073,0.391,0.104,0.752,0.091,1.081v7.836h3.392
		v-8.926L522.624,777.254L522.624,777.254z"/>
	<path d="M537.547,768.766h-3.39v6.184h-0.051c-0.253-0.444-0.67-0.882-1.249-1.315c-0.582-0.433-1.412-0.663-2.49-0.696
		c-0.958-0.001-1.841,0.244-2.65,0.731c-0.808,0.489-1.456,1.222-1.949,2.207c-0.491,0.982-0.744,2.219-0.76,3.706
		c-0.003,1.201,0.182,2.325,0.557,3.373c0.379,1.048,0.963,1.899,1.764,2.555c0.801,0.651,1.84,0.991,3.113,1.009
		c0.721,0.009,1.415-0.135,2.087-0.437c0.671-0.303,1.222-0.809,1.651-1.526h0.048v1.626h3.319V768.766L537.547,768.766z
		 M528.499,779.826c-0.014-1.058,0.197-1.973,0.635-2.742c0.438-0.771,1.188-1.175,2.254-1.214c0.771,0.013,1.368,0.22,1.791,0.617
		c0.423,0.399,0.72,0.912,0.885,1.542c0.165,0.626,0.243,1.291,0.236,1.991c0.009,0.994-0.224,1.85-0.696,2.573
		c-0.474,0.723-1.243,1.104-2.315,1.137c-0.722-0.02-1.286-0.242-1.695-0.674c-0.407-0.429-0.693-0.942-0.854-1.539
		C528.574,780.919,528.494,780.354,528.499,779.826L528.499,779.826z"/>
	<path d="M546.808,777.474c0.024,2.026,0.352,3.654,0.981,4.881c0.629,1.226,1.408,2.147,2.336,2.766
		c0.925,0.619,1.849,1.03,2.768,1.235c0.92,0.204,1.678,0.3,2.28,0.284c0.604,0.018,1.362-0.078,2.28-0.284
		c0.916-0.205,1.84-0.616,2.768-1.235c0.928-0.618,1.706-1.54,2.335-2.766c0.631-1.227,0.958-2.856,0.984-4.881
		c-0.026-2.027-0.354-3.655-0.984-4.882c-0.629-1.223-1.407-2.146-2.335-2.767c-0.928-0.617-1.852-1.03-2.768-1.234
		c-0.918-0.204-1.677-0.301-2.28-0.283c-0.601-0.019-1.36,0.078-2.28,0.283c-0.919,0.204-1.841,0.615-2.768,1.234
		c-0.928,0.62-1.707,1.544-2.336,2.767C547.159,773.819,546.831,775.446,546.808,777.474L546.808,777.474z M550.441,777.474
		c0.023-1.609,0.285-2.86,0.792-3.744c0.502-0.889,1.116-1.505,1.841-1.849c0.723-0.344,1.423-0.511,2.102-0.494
		c0.676-0.015,1.377,0.15,2.1,0.494s1.337,0.96,1.838,1.849c0.507,0.888,0.771,2.136,0.793,3.744
		c-0.024,1.608-0.286,2.858-0.793,3.745c-0.501,0.888-1.115,1.504-1.838,1.848c-0.723,0.343-1.423,0.512-2.1,0.493
		c-0.678,0.019-1.379-0.15-2.102-0.493c-0.724-0.344-1.339-0.96-1.841-1.848C550.727,780.332,550.464,779.083,550.441,777.474
		L550.441,777.474z"/>
	<path d="M569.353,780.021c-0.007-0.698,0.069-1.365,0.23-1.99c0.162-0.626,0.452-1.14,0.872-1.54
		c0.422-0.398,1.018-0.604,1.785-0.617c1.063,0.037,1.817,0.441,2.252,1.212c0.439,0.772,0.649,1.686,0.637,2.745
		c0.006,0.53-0.075,1.094-0.238,1.691c-0.164,0.598-0.452,1.11-0.856,1.54c-0.408,0.429-0.972,0.654-1.694,0.673
		c-1.071-0.033-1.838-0.414-2.303-1.136C569.569,781.872,569.342,781.015,569.353,780.021L569.353,780.021z M569.353,773.279h-3.247
		v17.944h3.393v-6.69h0.048c0.183,0.387,0.543,0.809,1.084,1.258c0.538,0.446,1.389,0.693,2.555,0.729
		c1.275-0.019,2.312-0.355,3.112-1.008c0.8-0.654,1.389-1.504,1.766-2.554c0.375-1.049,0.559-2.173,0.556-3.374
		c-0.014-1.487-0.267-2.723-0.756-3.707c-0.492-0.982-1.143-1.719-1.95-2.206c-0.809-0.487-1.692-0.731-2.651-0.731
		c-1.119,0.029-1.972,0.268-2.55,0.722c-0.579,0.452-1.016,0.949-1.31,1.483h-0.049V773.279L569.353,773.279z"/>
	<path d="M588.572,782.397c-0.151,0.464-0.429,0.813-0.837,1.053c-0.409,0.239-0.86,0.357-1.348,0.359
		c-0.899-0.025-1.559-0.224-1.982-0.604c-0.426-0.382-0.7-0.816-0.832-1.304c-0.129-0.491-0.204-0.905-0.221-1.251h8.855v-0.604
		c-0.028-1.943-0.364-3.433-1.008-4.464c-0.641-1.032-1.425-1.732-2.35-2.112c-0.925-0.376-1.829-0.551-2.707-0.531
		c-1.4,0.023-2.518,0.289-3.35,0.8s-1.452,1.139-1.86,1.88c-0.408,0.739-0.675,1.462-0.8,2.168
		c-0.128,0.707-0.183,1.266-0.175,1.677c0.043,2.616,0.658,4.459,1.851,5.521c1.192,1.06,2.718,1.574,4.578,1.535
		c0.748,0.007,1.501-0.12,2.254-0.377c0.752-0.261,1.433-0.692,2.04-1.297c0.607-0.604,1.068-1.421,1.381-2.45L588.572,782.397
		L588.572,782.397z M583.45,778.446c0.096-0.857,0.36-1.524,0.795-1.999c0.437-0.474,1.053-0.714,1.851-0.721
		c0.574-0.018,1.124,0.175,1.646,0.575c0.523,0.401,0.851,1.116,0.976,2.145H583.45L583.45,778.446z"/>
	<path d="M594.432,786.18h3.393v-6.721c-0.036-0.753,0.155-1.445,0.573-2.078c0.417-0.631,1.266-0.962,2.554-1.004
		c0.16-0.001,0.324,0.002,0.496,0.008c0.168,0.004,0.326,0.018,0.476,0.041v-3.441c-0.11-0.013-0.22-0.025-0.327-0.032
		c-0.111-0.008-0.222-0.015-0.329-0.015c-1.006,0.027-1.767,0.289-2.28,0.796c-0.515,0.501-0.935,1.097-1.261,1.776h-0.05v-2.23
		h-3.247v12.9H594.432z"/>
	<path d="M614.342,776.669c-0.029-1.046-0.339-1.836-0.927-2.379c-0.593-0.539-1.281-0.903-2.07-1.091
		c-0.796-0.187-1.509-0.274-2.144-0.263c-0.896-0.018-1.759,0.08-2.586,0.29c-0.828,0.214-1.529,0.644-2.105,1.294
		c-0.576,0.647-0.936,1.623-1.082,2.923h3.275c0.022-0.402,0.17-0.796,0.44-1.177c0.272-0.386,0.821-0.592,1.644-0.616
		c0.477-0.027,0.959,0.046,1.446,0.215c0.487,0.172,0.75,0.6,0.787,1.29c-0.015,0.356-0.146,0.607-0.392,0.753
		c-0.246,0.146-0.512,0.235-0.797,0.267l-3.058,0.459c-1.099,0.152-1.995,0.562-2.688,1.233c-0.692,0.67-1.048,1.634-1.069,2.891
		c0.012,0.887,0.209,1.607,0.59,2.159c0.379,0.556,0.863,0.961,1.459,1.218c0.594,0.256,1.22,0.384,1.88,0.381
		c1.135-0.024,2.021-0.235,2.661-0.633c0.64-0.393,1.144-0.806,1.512-1.233c0.034,0.345,0.073,0.614,0.113,0.812
		c0.043,0.194,0.11,0.433,0.204,0.715h3.661v-0.506c-0.211-0.053-0.387-0.214-0.532-0.491c-0.142-0.273-0.215-0.782-0.221-1.523
		L614.342,776.669L614.342,776.669z M611.021,781.548c-0.03,0.797-0.349,1.419-0.952,1.867c-0.603,0.447-1.297,0.674-2.084,0.681
		c-0.35,0.014-0.694-0.1-1.034-0.33c-0.337-0.23-0.519-0.637-0.542-1.223c0.017-0.682,0.244-1.154,0.68-1.416
		c0.438-0.261,0.978-0.44,1.627-0.525c0.691-0.107,1.209-0.219,1.553-0.334c0.344-0.114,0.594-0.237,0.752-0.372L611.021,781.548
		L611.021,781.548z"/>
	<path d="M621.171,769.786h-3.392v3.493h-1.749v2.422h1.749v7.838c-0.04,0.847,0.173,1.522,0.632,2.021
		c0.462,0.497,1.408,0.752,2.832,0.767h0.439c0.533-0.004,1.064-0.022,1.601-0.048v-2.569c-0.123,0.013-0.243,0.024-0.36,0.032
		c-0.119,0.01-0.234,0.014-0.343,0.018c-0.665,0.003-1.07-0.078-1.22-0.241c-0.151-0.164-0.215-0.432-0.187-0.802v-7.014h2.111
		v-2.422h-2.111L621.171,769.786L621.171,769.786z"/>
	<path d="M633.039,782.397c-0.149,0.464-0.428,0.813-0.838,1.053c-0.408,0.237-0.857,0.357-1.347,0.359
		c-0.901-0.025-1.563-0.224-1.986-0.604c-0.423-0.382-0.697-0.816-0.83-1.304c-0.127-0.491-0.202-0.905-0.219-1.251h8.852v-0.604
		c-0.025-1.943-0.362-3.433-1.004-4.464c-0.645-1.032-1.428-1.732-2.353-2.112c-0.926-0.376-1.828-0.551-2.705-0.531
		c-1.4,0.023-2.518,0.289-3.351,0.8c-0.832,0.511-1.453,1.139-1.861,1.88c-0.407,0.739-0.677,1.462-0.802,2.168
		c-0.127,0.707-0.181,1.266-0.172,1.677c0.042,2.616,0.657,4.459,1.849,5.521c1.192,1.06,2.719,1.574,4.58,1.535
		c0.748,0.007,1.5-0.12,2.251-0.377c0.755-0.261,1.437-0.692,2.044-1.297c0.607-0.604,1.065-1.421,1.379-2.45L633.039,782.397
		L633.039,782.397z M627.917,778.446c0.097-0.857,0.361-1.524,0.796-1.999c0.437-0.474,1.053-0.714,1.851-0.721
		c0.573-0.018,1.124,0.175,1.647,0.575c0.522,0.401,0.848,1.116,0.974,2.145H627.917L627.917,778.446z"/>
	<path d="M650.706,768.766h-3.393v6.184h-0.049c-0.252-0.444-0.669-0.882-1.252-1.315c-0.58-0.433-1.408-0.663-2.486-0.696
		c-0.959-0.001-1.845,0.244-2.651,0.731c-0.807,0.489-1.455,1.222-1.95,2.207c-0.492,0.982-0.744,2.219-0.757,3.706
		c-0.003,1.201,0.183,2.325,0.557,3.373c0.373,1.048,0.963,1.899,1.762,2.555c0.803,0.651,1.839,0.991,3.114,1.009
		c0.72,0.009,1.414-0.135,2.085-0.437c0.673-0.3,1.222-0.809,1.652-1.526h0.05v1.626h3.319L650.706,768.766L650.706,768.766z
		 M641.658,779.826c-0.014-1.058,0.198-1.973,0.635-2.742c0.438-0.771,1.188-1.175,2.254-1.214c0.77,0.013,1.365,0.22,1.792,0.617
		c0.423,0.399,0.72,0.912,0.884,1.542c0.166,0.626,0.246,1.291,0.235,1.991c0.013,0.994-0.22,1.85-0.695,2.573
		c-0.472,0.723-1.243,1.104-2.314,1.137c-0.722-0.02-1.287-0.242-1.694-0.674c-0.408-0.429-0.694-0.942-0.857-1.539
		C641.731,780.919,641.652,780.354,641.658,779.826L641.658,779.826z"/>
	<polygon points="789.076,400.238 96.766,400.238 96.766,407.202 789.076,407.202 	"/>
</g>
</svg>
